<svg width="106" height="70" viewBox="0 0 106 70" fill="none" xmlns="http://www.w3.org/2000/svg">
<g clip-path="url(#clip0_1542_42989)">
<path d="M72.786 50.8583L74.1467 43.1397H83.2269C83.2269 43.1397 84.5781 43.198 85.0565 44.1396C85.0566 44.1419 85.0566 44.1441 85.0565 44.1464C85.0606 44.1538 85.064 44.162 85.0687 44.1701L88.3986 50.8583H72.786ZM93.0722 49.8991L87.7955 41.794C87.889 40.8735 87.2432 40.1406 86.3047 40.1406H73.9502C72.9676 40.1406 72.0223 40.9446 71.8495 41.9276L68.1097 63.1461C67.9362 64.1291 68.5976 64.9331 69.5801 64.9331H73.0909C73.7286 61.3144 77.1784 58.3804 80.7956 58.3804C84.4127 58.3804 86.8265 61.3144 86.1909 64.9331H89.701C90.6829 64.9331 91.6288 64.1291 91.8016 63.1461L93.8487 51.5301C93.9768 50.8034 93.6455 50.1743 93.0715 49.8964L93.0722 49.8991Z" fill="#D63346"/>
<path d="M35.4571 67.6631C33.9508 67.6631 32.9445 66.4429 33.2101 64.9332C33.4757 63.4235 34.913 62.2033 36.42 62.2033C37.9271 62.2033 38.9334 63.4235 38.667 64.9332C38.4007 66.4429 36.9642 67.6631 35.4571 67.6631ZM36.8313 59.8672C34.0361 59.8672 31.3703 62.1341 30.8777 64.9305C30.3851 67.7269 32.2513 69.9938 35.0465 69.9938C37.8417 69.9938 40.5068 67.7269 40.9994 64.9305C41.4921 62.1341 39.6266 59.8672 36.8313 59.8672Z" fill="#D63346"/>
<path d="M79.159 67.6631C77.6513 67.6631 76.645 66.4429 76.9113 64.9332C77.1776 63.4235 78.6142 62.2033 80.1205 62.2033C81.6269 62.2033 82.6352 63.4235 82.3689 64.9332C82.1026 66.4429 80.666 67.6631 79.159 67.6631ZM80.5319 59.8672C77.7366 59.8672 75.0715 62.1341 74.5789 64.9305C74.0862 67.7269 75.9524 69.9938 78.747 69.9938C81.5415 69.9938 84.2087 67.7269 84.7013 64.9305C85.1939 62.1341 83.3271 59.8672 80.5319 59.8672Z" fill="#D63346"/>
<path d="M69.1131 35.84H30.6149C29.3322 35.84 28.0975 36.8901 27.8712 38.1734L27.8285 38.416H10.389C9.57995 38.416 8.8095 39.0716 8.66652 39.8803C8.52354 40.6891 9.06429 41.3446 9.8727 41.3446H46.3813C47.1897 41.3446 47.7291 42.0001 47.5868 42.8089C47.4445 43.6176 46.6734 44.2732 45.865 44.2732H2.24462C1.43621 44.2732 0.665074 44.9287 0.522772 45.7374C0.38047 46.5462 0.919849 47.2017 1.72826 47.2017H32.3571C33.1621 47.2051 33.6988 47.8593 33.5572 48.666C33.4156 49.4727 32.6431 50.131 31.8347 50.131H12.9783C12.1699 50.131 11.3987 50.7865 11.2564 51.5952C11.1141 52.404 11.6535 53.0595 12.4619 53.0595H41.146C41.9517 53.0629 42.4883 53.7171 42.346 54.5245C42.2037 55.3319 41.4326 55.9881 40.6242 55.9881H17.1064C16.298 55.9881 15.5268 56.6443 15.3845 57.453C15.2422 58.2618 15.7816 58.9173 16.59 58.9173H24.2154L23.4978 62.9848C23.2714 64.2674 24.1361 65.3174 25.4189 65.3174H29.3315C29.3464 65.1913 29.3654 65.0632 29.3877 64.9344C29.8621 62.235 31.9031 59.9179 34.4096 58.9139C35.2621 58.5673 36.1729 58.3867 37.0931 58.3818C37.9537 58.3741 38.8054 58.5558 39.5881 58.9139C41.7416 59.9179 42.964 62.2357 42.4883 64.9344C42.4653 65.0632 42.4396 65.1913 42.4091 65.3174H63.9163C65.1991 65.3174 66.4337 64.2674 66.6601 62.9848L71.0335 38.1693C71.2598 36.886 70.3951 35.8359 69.1131 35.8359V35.84Z" fill="#D63346"/>
<path d="M72.786 50.8583L74.1467 43.1397H83.2269C83.2269 43.1397 84.5781 43.198 85.0565 44.1396C85.0566 44.1419 85.0566 44.1441 85.0565 44.1464C85.0606 44.1538 85.064 44.162 85.0687 44.1701L88.3986 50.8583H72.786ZM93.0722 49.8991L87.7955 41.794C87.889 40.8735 87.2432 40.1406 86.3047 40.1406H73.9502C72.9676 40.1406 72.0223 40.9446 71.8495 41.9276L68.1097 63.1461C67.9362 64.1291 68.5976 64.9331 69.5801 64.9331H73.0909C73.7286 61.3144 77.1784 58.3804 80.7956 58.3804C84.4127 58.3804 86.8265 61.3144 86.1909 64.9331H89.701C90.6829 64.9331 91.6288 64.1291 91.8016 63.1461L93.8487 51.5301C93.9768 50.8034 93.6455 50.1743 93.0715 49.8964L93.0722 49.8991Z" fill="#D63346"/>
<path d="M35.4571 67.6631C33.9508 67.6631 32.9445 66.4429 33.2101 64.9332C33.4757 63.4235 34.913 62.2033 36.42 62.2033C37.9271 62.2033 38.9334 63.4235 38.667 64.9332C38.4007 66.4429 36.9642 67.6631 35.4571 67.6631ZM36.8313 59.8672C34.0361 59.8672 31.3703 62.1341 30.8777 64.9305C30.3851 67.7269 32.2513 69.9938 35.0465 69.9938C37.8417 69.9938 40.5068 67.7269 40.9994 64.9305C41.4921 62.1341 39.6266 59.8672 36.8313 59.8672Z" fill="#D63346"/>
<path d="M79.159 67.6631C77.6513 67.6631 76.645 66.4429 76.9113 64.9332C77.1776 63.4235 78.6142 62.2033 80.1205 62.2033C81.6269 62.2033 82.6352 63.4235 82.3689 64.9332C82.1026 66.4429 80.666 67.6631 79.159 67.6631ZM80.5319 59.8672C77.7366 59.8672 75.0715 62.1341 74.5789 64.9305C74.0862 67.7269 75.9524 69.9938 78.747 69.9938C81.5415 69.9938 84.2087 67.7269 84.7013 64.9305C85.1939 62.1341 83.3271 59.8672 80.5319 59.8672Z" fill="#D63346"/>
<path d="M69.1131 35.84H30.6149C29.3322 35.84 28.0975 36.8901 27.8712 38.1734L27.8285 38.416H10.389C9.57995 38.416 8.8095 39.0716 8.66652 39.8803C8.52354 40.6891 9.06429 41.3446 9.8727 41.3446H46.3813C47.1897 41.3446 47.7291 42.0001 47.5868 42.8089C47.4445 43.6176 46.6734 44.2732 45.865 44.2732H2.24462C1.43621 44.2732 0.665074 44.9287 0.522772 45.7374C0.38047 46.5462 0.919849 47.2017 1.72826 47.2017H32.3571C33.1621 47.2051 33.6988 47.8593 33.5572 48.666C33.4156 49.4727 32.6431 50.131 31.8347 50.131H12.9783C12.1699 50.131 11.3987 50.7865 11.2564 51.5952C11.1141 52.404 11.6535 53.0595 12.4619 53.0595H41.146C41.9517 53.0629 42.4883 53.7171 42.346 54.5245C42.2037 55.3319 41.4326 55.9881 40.6242 55.9881H17.1064C16.298 55.9881 15.5268 56.6443 15.3845 57.453C15.2422 58.2618 15.7816 58.9173 16.59 58.9173H24.2154L23.4978 62.9848C23.2714 64.2674 24.1361 65.3174 25.4189 65.3174H29.3315C29.3464 65.1913 29.3654 65.0632 29.3877 64.9344C29.8621 62.235 31.9031 59.9179 34.4096 58.9139C35.2621 58.5673 36.1729 58.3867 37.0931 58.3818C37.9537 58.3741 38.8054 58.5558 39.5881 58.9139C41.7416 59.9179 42.964 62.2357 42.4883 64.9344C42.4653 65.0632 42.4396 65.1913 42.4091 65.3174H63.9163C65.1991 65.3174 66.4337 64.2674 66.6601 62.9848L71.0335 38.1693C71.2598 36.886 70.3951 35.8359 69.1131 35.8359V35.84Z" fill="#D63346"/>
<path d="M103.803 21.5679C103.255 20.2697 102.577 19.0308 101.777 17.8706L104.255 15.5169C104.445 15.3359 104.487 15.0688 104.348 14.923L101.127 11.5288C100.987 11.3823 100.72 11.4108 100.528 11.5918L98.1566 13.8465C95.2864 11.3841 91.799 9.75186 88.0701 9.12557V6.26615C88.0647 6.14208 88.0108 6.0251 87.9201 5.94031C87.8294 5.85551 87.709 5.80968 87.5849 5.81263H81.3799C81.2558 5.80968 81.1354 5.85551 81.0447 5.94031C80.954 6.0251 80.9002 6.14208 80.8947 6.26615V9.17031C76.0914 10.0388 71.7461 12.5685 68.6182 16.3173C65.4903 20.066 63.779 24.7953 63.7832 29.6784C63.7825 31.273 63.9644 32.8624 64.3253 34.4156H69.1189C69.2341 34.4156 69.3486 34.421 69.4617 34.4318C68.9793 32.8935 68.7346 31.2906 68.736 29.6784C68.736 20.9523 75.8037 13.8479 84.5126 13.793H84.7158C93.4247 13.8479 100.492 20.9523 100.492 29.6784C100.492 36.1436 96.6123 41.7193 91.0584 44.1964L93.7886 48.3906C98.5642 46.0425 102.262 41.9566 104.124 36.9698C105.986 31.983 105.872 26.4726 103.805 21.5672L103.803 21.5679Z" fill="#D63346"/>
<path d="M86.0787 27.6743C85.8493 27.543 85.6014 27.4468 85.3435 27.389L78.3788 17.5756C78.328 17.503 78.2067 17.4854 78.0895 17.539C77.9573 17.5986 77.8807 17.7261 77.9173 17.8223L82.2488 29.1678C82.0971 29.6434 82.0831 30.1522 82.2085 30.6354C82.3338 31.1185 82.5933 31.5564 82.957 31.8982C83.3207 32.24 83.7736 32.4718 84.2635 32.5668C84.7534 32.6618 85.2601 32.6161 85.7251 32.4351C86.1901 32.254 86.5944 31.9449 86.8911 31.5436C87.1879 31.1423 87.365 30.6651 87.402 30.1673C87.439 29.6695 87.3343 29.1713 87.1002 28.7305C86.866 28.2897 86.5118 27.9242 86.0787 27.6764V27.6743Z" fill="#D63346"/>
<path d="M105.38 12.9878L103.185 10.6754C103.091 10.5758 102.982 10.5229 102.946 10.5575L101.909 11.5438C101.872 11.5784 101.92 11.6882 102.014 11.7879L104.209 14.1009C104.304 14.1999 104.413 14.2527 104.447 14.2182L105.487 13.2298C105.524 13.1972 105.477 13.0874 105.38 12.9878Z" fill="#D63346"/>
<path d="M81.7092 4.8328H87.2515C88.0755 4.8328 88.7497 4.27488 88.7497 3.59359V1.23989C88.7497 0.55792 88.0721 0 87.2515 0H81.7092C80.8852 0 80.2109 0.55792 80.2109 1.23989V3.59494C80.2109 4.2776 80.8852 4.8328 81.7092 4.8328Z" fill="#D63346"/>
</g>
<defs>
<clipPath id="clip0_1542_42989">
<rect width="105" height="70" fill="white" transform="translate(0.5)"/>
</clipPath>
</defs>
</svg>
