<svg width="83" height="70" viewBox="0 0 83 70" fill="none" xmlns="http://www.w3.org/2000/svg">
<g clip-path="url(#clip0_1539_42954)">
<path d="M82.5377 35.1288C82.5366 32.9395 81.8074 30.8127 80.4648 29.0833C79.1223 27.3539 77.2426 26.1202 75.1219 25.5765C73.0425 18.2137 68.6158 11.7313 62.5149 7.11473C56.4139 2.49818 48.9724 0 41.3217 0C33.6709 0 26.2294 2.49818 20.1285 7.11473C14.0276 11.7313 9.6009 18.2137 7.52151 25.5765C5.19097 26.1695 3.15743 27.5937 1.80345 29.5811C0.449457 31.5685 -0.131661 33.9822 0.169411 36.3681C0.470482 38.754 1.63298 40.9477 3.43824 42.5364C5.2435 44.1252 7.56709 44.9995 9.9719 44.995V25.3965C12.0482 18.7048 16.2112 12.8531 21.852 8.69721C27.4927 4.54135 34.3153 2.29946 41.3217 2.29946C48.3281 2.29946 55.1506 4.54135 60.7914 8.69721C66.4322 12.8531 70.5952 18.7048 72.6715 25.3965V44.7781C70.6583 51.2692 66.6906 56.9806 61.3102 61.1325C60.8224 60.8045 60.2558 60.613 59.669 60.5781C59.0823 60.5432 58.4969 60.6662 57.9738 60.9341L52.4961 63.7675C51.7189 64.1671 51.1324 64.8591 50.8654 65.6912C50.5984 66.5233 50.6729 67.4274 51.0725 68.2045C51.4721 68.9817 52.1641 69.5683 52.9962 69.8353C53.8283 70.1023 54.7323 70.0277 55.5095 69.6282L60.9871 66.7901C61.6525 66.4454 62.1799 65.8835 62.4821 65.1978C62.7843 64.512 62.8429 63.7436 62.6484 63.0199C68.6601 58.4007 73.028 51.9717 75.108 44.6812C77.2313 44.1401 79.1141 42.9075 80.4594 41.1779C81.8046 39.4483 82.5358 37.32 82.5377 35.1288Z" fill="#D63346"/>
<path d="M41.3282 9.71186C46.3553 9.71186 51.2696 11.2026 55.4495 13.9955C59.6294 16.7884 62.8872 20.7581 64.811 25.4026C66.7348 30.047 67.2382 35.1577 66.2574 40.0882C65.2767 45.0188 62.8559 49.5477 59.3012 53.1025C55.7465 56.6572 51.2175 59.078 46.2869 60.0587C41.3564 61.0395 36.2457 60.5361 31.6013 58.6123C26.9568 56.6885 22.9871 53.4307 20.1942 49.2508C17.4013 45.0709 15.9106 40.1566 15.9106 35.1295C15.9179 28.3906 18.5982 21.9298 23.3633 17.1646C28.1285 12.3995 34.5893 9.71919 41.3282 9.71186ZM41.3282 5.71094C35.5094 5.70911 29.8207 7.43293 24.9816 10.6644C20.1425 13.8958 16.3704 18.4897 14.1424 23.8651C11.9144 29.2405 11.3305 35.1559 12.4645 40.8631C13.5986 46.5704 16.3997 51.8131 20.5136 55.9283C24.6275 60.0435 29.8694 62.8462 35.5763 63.9821C41.2832 65.118 47.1987 64.5359 52.5748 62.3096C57.9509 60.0832 62.546 56.3126 65.779 51.4745C69.0119 46.6365 70.7375 40.9483 70.7375 35.1295C70.729 27.3298 67.6268 19.8521 62.1116 14.3369C56.5964 8.82168 49.1186 5.71949 41.319 5.71094H41.3282Z" fill="#D63346"/>
<path d="M28.7178 15.4837L29.8946 17.5233C30.0412 17.7744 30.281 17.9575 30.5618 18.0327C30.8427 18.1079 31.1419 18.0691 31.3943 17.9248C31.5186 17.8527 31.6274 17.7568 31.7146 17.6427C31.8018 17.5285 31.8657 17.3983 31.9025 17.2594C31.9394 17.1206 31.9485 16.9759 31.9294 16.8335C31.9103 16.6911 31.8633 16.5539 31.7912 16.4297L30.6237 14.39C30.4789 14.1395 30.2407 13.9566 29.9614 13.8814C29.682 13.8061 29.3842 13.8447 29.1332 13.9885C28.88 14.1319 28.6941 14.3699 28.6162 14.6502C28.5384 14.9305 28.5749 15.2302 28.7178 15.4837Z" fill="#D63346"/>
<path d="M20.5858 24.4236L22.6255 25.6049C22.8773 25.749 23.1758 25.7876 23.4559 25.7124C23.736 25.6372 23.975 25.4542 24.1207 25.2035C24.1926 25.079 24.2393 24.9415 24.2581 24.7989C24.2768 24.6564 24.2673 24.5115 24.23 24.3726C24.1927 24.2338 24.1284 24.1036 24.0408 23.9896C23.9531 23.8756 23.8438 23.78 23.7192 23.7083L21.6795 22.5316C21.5559 22.4593 21.4193 22.4122 21.2775 22.3928C21.1356 22.3735 20.9914 22.3822 20.8529 22.4187C20.7145 22.4551 20.5846 22.5185 20.4707 22.6051C20.3567 22.6918 20.261 22.8001 20.189 22.9238C20.1161 23.0482 20.0686 23.1858 20.0491 23.3287C20.0296 23.4716 20.0386 23.6169 20.0755 23.7562C20.1123 23.8956 20.1764 24.0263 20.264 24.1409C20.3516 24.2554 20.461 24.3515 20.5858 24.4236Z" fill="#D63346"/>
<path d="M51.2546 17.9248C51.5071 18.0691 51.8063 18.1079 52.0871 18.0327C52.368 17.9575 52.6078 17.7744 52.7544 17.5233L53.9311 15.4837C54.0756 15.2325 54.1149 14.9344 54.0406 14.6544C53.9663 14.3743 53.7843 14.135 53.5343 13.9885C53.2832 13.8447 52.9854 13.8061 52.7061 13.8814C52.4267 13.9566 52.1886 14.1395 52.0437 14.39L50.867 16.4343C50.722 16.6836 50.6814 16.9802 50.754 17.2593C50.8266 17.5385 51.0065 17.7777 51.2546 17.9248Z" fill="#D63346"/>
<path d="M62.4788 22.9316C62.4068 22.8079 62.3111 22.6996 62.1971 22.613C62.0832 22.5263 61.9533 22.4629 61.8149 22.4265C61.6764 22.3901 61.5322 22.3813 61.3904 22.4006C61.2485 22.42 61.1119 22.4672 60.9883 22.5394L58.9486 23.7161C58.824 23.7878 58.7147 23.8834 58.627 23.9974C58.5394 24.1114 58.4751 24.2416 58.4378 24.3804C58.4005 24.5193 58.391 24.6642 58.4097 24.8067C58.4285 24.9493 58.4752 25.0868 58.5471 25.2113C58.6928 25.4621 58.9318 25.645 59.2119 25.7202C59.492 25.7955 59.7906 25.7568 60.0423 25.6128L62.082 24.4314C62.2068 24.3593 62.3162 24.2632 62.4038 24.1487C62.4914 24.0342 62.5555 23.9034 62.5924 23.7641C62.6292 23.6247 62.6382 23.4794 62.6187 23.3365C62.5992 23.1936 62.5517 23.056 62.4788 22.9316Z" fill="#D63346"/>
<path d="M40.2306 11.8107V14.1734C40.2306 14.4635 40.3458 14.7417 40.5509 14.9468C40.756 15.1519 41.0342 15.2671 41.3242 15.2671C41.6143 15.2671 41.8925 15.1519 42.0976 14.9468C42.3027 14.7417 42.4179 14.4635 42.4179 14.1734V11.8107C42.4197 11.6671 42.3933 11.5245 42.34 11.3911C42.2867 11.2577 42.2077 11.1362 42.1074 11.0333C42.0071 10.9305 41.8876 10.8484 41.7556 10.7917C41.6236 10.7351 41.4817 10.705 41.3381 10.7032C41.1921 10.7014 41.0473 10.7287 40.9121 10.7837C40.7768 10.8387 40.654 10.9202 40.5508 11.0235C40.4476 11.1267 40.3661 11.2495 40.3111 11.3847C40.2561 11.5199 40.2287 11.6648 40.2306 11.8107Z" fill="#D63346"/>
<path d="M20.3685 34.0313H18.0058C17.7165 34.0312 17.439 34.1458 17.2341 34.3499C17.0291 34.5541 16.9133 34.8311 16.9121 35.1203V35.1618C16.9121 35.3053 16.9404 35.4472 16.9955 35.5797C17.0505 35.7121 17.1311 35.8324 17.2327 35.9336C17.3343 36.0348 17.4549 36.1149 17.5876 36.1693C17.7203 36.2238 17.8624 36.2515 18.0058 36.2509H20.3685C20.6586 36.2509 20.9367 36.1357 21.1418 35.9306C21.3469 35.7255 21.4622 35.4473 21.4622 35.1572C21.4659 35.0111 21.4403 34.8657 21.3871 34.7295C21.3338 34.5933 21.2539 34.4692 21.1521 34.3643C21.0502 34.2594 20.9284 34.176 20.7939 34.1188C20.6593 34.0616 20.5147 34.0318 20.3685 34.0313Z" fill="#D63346"/>
<path d="M40.2299 58.4532C40.2299 58.7425 40.3445 59.0199 40.5486 59.2249C40.7527 59.4299 41.0297 59.5457 41.319 59.5469C41.6083 59.5457 41.8853 59.4299 42.0894 59.2249C42.2935 59.0199 42.4081 58.7425 42.4081 58.4532V56.0859C42.4081 55.7958 42.2928 55.5176 42.0877 55.3125C41.8826 55.1074 41.6044 54.9922 41.3144 54.9922C41.0243 54.9922 40.7461 55.1074 40.541 55.3125C40.3359 55.5176 40.2207 55.7958 40.2207 56.0859L40.2299 58.4532Z" fill="#D63346"/>
<path d="M58.9337 46.5637L60.9734 47.7405C61.0969 47.8133 61.2335 47.8609 61.3755 47.8806C61.5174 47.9003 61.6619 47.8917 61.8005 47.8552C61.9391 47.8187 62.0691 47.7552 62.183 47.6681C62.2969 47.5811 62.3924 47.4724 62.464 47.3482C62.6074 47.0966 62.6452 46.7984 62.5691 46.519C62.493 46.2395 62.3091 46.0017 62.0579 45.8577L60.0182 44.6763C59.7665 44.5322 59.4679 44.4936 59.1878 44.5688C58.9077 44.644 58.6687 44.827 58.523 45.0778C58.4523 45.2023 58.4068 45.3395 58.3892 45.4816C58.3715 45.6237 58.3821 45.7679 58.4202 45.9059C58.4583 46.0439 58.5234 46.1731 58.6115 46.286C58.6996 46.3988 58.8091 46.4932 58.9337 46.5637Z" fill="#D63346"/>
<path d="M64.6517 34.0313H62.289C61.9985 34.0325 61.7203 34.1487 61.5154 34.3546C61.3104 34.5604 61.1953 34.8391 61.1953 35.1295C61.1953 35.4196 61.3105 35.6978 61.5156 35.9029C61.7207 36.108 61.9989 36.2232 62.289 36.2232H64.6517C64.7951 36.2238 64.9372 36.1961 65.0699 36.1416C65.2025 36.0872 65.3231 36.0071 65.4248 35.9059C65.5264 35.8047 65.607 35.6844 65.662 35.552C65.7171 35.4196 65.7454 35.2776 65.7454 35.1342V35.1111C65.7417 34.8234 65.6249 34.5488 65.4202 34.3467C65.2155 34.1446 64.9394 34.0312 64.6517 34.0313Z" fill="#D63346"/>
<path d="M20.1792 47.3262C20.2508 47.4503 20.3463 47.5591 20.4602 47.6461C20.5741 47.7331 20.704 47.7967 20.8426 47.8332C20.9812 47.8697 21.1257 47.8783 21.2677 47.8586C21.4097 47.8389 21.5463 47.7913 21.6697 47.7184L23.7094 46.5417C23.8345 46.4704 23.9442 46.3751 24.0322 46.2611C24.1202 46.1472 24.1847 46.0169 24.2221 45.8779C24.2594 45.7388 24.2688 45.5938 24.2497 45.4511C24.2307 45.3084 24.1835 45.1709 24.1109 45.0465C23.9652 44.7958 23.7262 44.6128 23.4461 44.5376C23.166 44.4624 22.8675 44.501 22.6157 44.6451L20.5761 45.8264C20.4512 45.8985 20.3418 45.9946 20.2542 46.1091C20.1666 46.2236 20.1026 46.3544 20.0657 46.4938C20.0288 46.6331 20.0198 46.7784 20.0393 46.9213C20.0588 47.0642 20.1063 47.2018 20.1792 47.3262Z" fill="#D63346"/>
<path d="M29.1145 56.2642C29.2386 56.3361 29.3757 56.3827 29.5179 56.4014C29.6602 56.4201 29.8047 56.4105 29.9432 56.3732C30.0817 56.3359 30.2114 56.2716 30.325 56.184C30.4386 56.0964 30.5338 55.9872 30.605 55.8627L31.7818 53.8231C31.8539 53.6988 31.9009 53.5616 31.9199 53.4192C31.939 53.2769 31.9299 53.1321 31.893 52.9933C31.8562 52.8544 31.7923 52.7242 31.7052 52.61C31.618 52.4959 31.5091 52.4 31.3849 52.3279C31.1333 52.182 30.8341 52.1418 30.553 52.2162C30.2718 52.2906 30.0316 52.4735 29.8851 52.7248L28.7084 54.7645C28.6365 54.8896 28.59 55.0276 28.5715 55.1707C28.5531 55.3139 28.563 55.4592 28.6007 55.5985C28.6384 55.7378 28.7032 55.8682 28.7913 55.9825C28.8795 56.0967 28.9893 56.1924 29.1145 56.2642Z" fill="#D63346"/>
<path d="M50.8592 53.8341L52.0359 55.8737C52.1072 55.9982 52.2024 56.1074 52.3159 56.195C52.4295 56.2826 52.5593 56.3469 52.6978 56.3842C52.8363 56.4215 52.9808 56.4311 53.123 56.4124C53.2652 56.3937 53.4023 56.3471 53.5265 56.2752C53.7765 56.1287 53.9584 55.8894 54.0328 55.6094C54.1071 55.3293 54.0678 55.0312 53.9233 54.7801L52.7466 52.7404C52.6001 52.4891 52.3599 52.3063 52.0788 52.2319C51.7976 52.1575 51.4984 52.1976 51.2468 52.3435C50.9987 52.4906 50.8188 52.7298 50.7461 53.009C50.6735 53.2882 50.7142 53.5847 50.8592 53.8341Z" fill="#D63346"/>
<path d="M34.8497 38.4368V40.1996H28.1953C28.2672 39.5273 28.4879 38.8794 28.8414 38.303C29.4512 37.4244 30.169 36.6259 30.978 35.9264C31.5468 35.4314 32.0732 34.8896 32.5516 34.3067C32.7965 33.9674 32.9332 33.5621 32.9438 33.1438C32.9564 32.966 32.9326 32.7876 32.8739 32.6194C32.8152 32.4512 32.7227 32.2967 32.6023 32.1655C32.34 31.9391 32.0051 31.8145 31.6586 31.8145C31.3122 31.8145 30.9772 31.9391 30.7149 32.1655C30.4454 32.5013 30.3017 32.9208 30.3088 33.3514L28.4168 33.1622C28.4283 32.7345 28.5287 32.3139 28.7114 31.927C28.8941 31.5402 29.1552 31.1955 29.4782 30.9149C30.1232 30.443 30.9084 30.2024 31.7071 30.2319C32.5497 30.1834 33.3779 30.4666 34.0144 31.021C34.2855 31.2704 34.5002 31.5748 34.6442 31.9138C34.7883 32.2528 34.8583 32.6186 34.8497 32.9869C34.8526 33.4229 34.7712 33.8554 34.6097 34.2605C34.4207 34.7182 34.1657 35.1457 33.8529 35.5296C33.4694 35.9812 33.0529 36.4038 32.6069 36.794C32.007 37.3431 31.6286 37.7169 31.4671 37.8877C31.3223 38.0526 31.1925 38.2302 31.0795 38.4183L34.8497 38.4368Z" fill="#D63346"/>
<path d="M39.861 40.1992V38.2057H35.8047V36.5444L40.1056 30.25H41.6976V36.5444H42.9297V38.2149H41.6976V40.2085L39.861 40.1992ZM39.861 36.5352V33.148L37.5814 36.5444L39.861 36.5352Z" fill="#D63346"/>
<path d="M43.2266 40.3664L45.6816 30.1172H47.1075L44.6294 40.3664H43.2266Z" fill="#D63346"/>
<path d="M47.6641 32.1847V30.4219H54.1569V31.8063C53.5106 32.4844 52.9609 33.2484 52.5233 34.0767C51.9673 35.0671 51.5408 36.1248 51.2543 37.2239C50.9832 38.1933 50.8389 39.1938 50.8251 40.2004H48.9792C49.0234 38.7657 49.3106 37.3489 49.8283 36.0102C50.3357 34.6314 51.0584 33.3418 51.9696 32.1893L47.6641 32.1847Z" fill="#D63346"/>
</g>
<defs>
<clipPath id="clip0_1539_42954">
<rect width="82.4365" height="70" fill="white" transform="translate(0.101562)"/>
</clipPath>
</defs>
</svg>
