<svg width="112" height="54" viewBox="0 0 112 54" fill="none" xmlns="http://www.w3.org/2000/svg">
<g clip-path="url(#clip0_1539_42966)">
<path d="M68.0881 37.0676L67.1817 39.8204H69.0067L68.0881 37.0676ZM77.5948 36.7229C77.4292 36.567 77.1895 36.4887 76.8759 36.4879H75.7033V38.2611H76.8726C77.1943 38.2611 77.4362 38.1846 77.5982 38.0317C77.6828 37.9439 77.7481 37.8394 77.7897 37.7249C77.8314 37.6103 77.8485 37.4883 77.84 37.3668C77.8464 37.2483 77.8279 37.1298 77.7857 37.0189C77.7434 36.908 77.6784 36.8072 77.5948 36.7229ZM68.0881 37.0676L67.1817 39.8204H69.0067L68.0881 37.0676ZM77.5948 36.7229C77.4292 36.567 77.1895 36.4887 76.8759 36.4879H75.7033V38.2611H76.8726C77.1943 38.2611 77.4362 38.1846 77.5982 38.0317C77.6828 37.9439 77.7481 37.8394 77.7897 37.7249C77.8314 37.6103 77.8485 37.4883 77.84 37.3668C77.8464 37.2483 77.8279 37.1298 77.7857 37.0189C77.7434 36.908 77.6784 36.8072 77.5948 36.7229ZM52.1611 49.0574C52.0316 48.8077 51.8338 48.5999 51.5908 48.4579C51.341 48.3212 51.0608 48.2496 50.7759 48.2496C50.4911 48.2496 50.2109 48.3212 49.9611 48.4579C49.718 48.5999 49.5203 48.8077 49.3908 49.0574C49.2461 49.3373 49.174 49.649 49.1811 49.964C49.1743 50.2799 49.2464 50.5926 49.3908 50.8738C49.5199 51.1243 49.7177 51.333 49.9611 51.4756C50.2106 51.6129 50.491 51.685 50.7759 51.685C51.0609 51.685 51.3412 51.6129 51.5908 51.4756C51.8342 51.333 52.0319 51.1243 52.1611 50.8738C52.3055 50.5926 52.3775 50.2799 52.3707 49.964C52.3778 49.649 52.3057 49.3373 52.1611 49.0574ZM68.0881 37.0698L67.1817 39.8226H69.0067L68.0881 37.0698ZM77.5948 36.7251C77.4292 36.5692 77.1895 36.4909 76.8759 36.4902H75.7033V38.2633H76.8726C77.1943 38.2633 77.4362 38.1869 77.5982 38.0339C77.6828 37.9462 77.7481 37.8416 77.7897 37.7271C77.8314 37.6125 77.8485 37.4906 77.84 37.369C77.8467 37.2501 77.8284 37.1312 77.7861 37.0199C77.7439 36.9086 77.6787 36.8074 77.5948 36.7229V36.7251ZM52.1611 49.0574C52.0316 48.8077 51.8338 48.5999 51.5908 48.4579C51.341 48.3212 51.0608 48.2496 50.7759 48.2496C50.4911 48.2496 50.2109 48.3212 49.9611 48.4579C49.718 48.5999 49.5203 48.8077 49.3908 49.0574C49.2461 49.3373 49.174 49.649 49.1811 49.964C49.1743 50.2799 49.2464 50.5926 49.3908 50.8738C49.5199 51.1243 49.7177 51.333 49.9611 51.4756C50.2106 51.6129 50.491 51.685 50.7759 51.685C51.0609 51.685 51.3412 51.6129 51.5908 51.4756C51.8342 51.333 52.0319 51.1243 52.1611 50.8738C52.3055 50.5926 52.3775 50.2799 52.3707 49.964C52.3778 49.649 52.3057 49.3373 52.1611 49.0574ZM68.0881 37.0698L67.1817 39.8226H69.0067L68.0881 37.0698ZM77.5948 36.7251C77.4292 36.5692 77.1895 36.4909 76.8759 36.4902H75.7033V38.2633H76.8726C77.1943 38.2633 77.4362 38.1869 77.5982 38.0339C77.6828 37.9462 77.7481 37.8416 77.7897 37.7271C77.8314 37.6125 77.8485 37.4906 77.84 37.369C77.8467 37.2501 77.8284 37.1312 77.7861 37.0199C77.7439 36.9086 77.6787 36.8074 77.5948 36.7229V36.7251ZM52.1611 49.0574C52.0316 48.8077 51.8338 48.5999 51.5908 48.4579C51.341 48.3212 51.0608 48.2496 50.7759 48.2496C50.4911 48.2496 50.2109 48.3212 49.9611 48.4579C49.718 48.5999 49.5203 48.8077 49.3908 49.0574C49.2461 49.3373 49.174 49.649 49.1811 49.964C49.1743 50.2799 49.2464 50.5926 49.3908 50.8738C49.5199 51.1243 49.7177 51.333 49.9611 51.4756C50.2106 51.6129 50.491 51.685 50.7759 51.685C51.0609 51.685 51.3412 51.6129 51.5908 51.4756C51.8342 51.333 52.0319 51.1243 52.1611 50.8738C52.3055 50.5926 52.3775 50.2799 52.3707 49.964C52.3778 49.649 52.3057 49.3373 52.1611 49.0574ZM68.0881 37.0698L67.1817 39.8226H69.0067L68.0881 37.0698ZM77.5948 36.7251C77.4292 36.5692 77.1895 36.4909 76.8759 36.4902H75.7033V38.2633H76.8726C77.1943 38.2633 77.4362 38.1869 77.5982 38.0339C77.6828 37.9462 77.7481 37.8416 77.7897 37.7271C77.8314 37.6125 77.8485 37.4906 77.84 37.369C77.8467 37.2501 77.8284 37.1312 77.7861 37.0199C77.7439 36.9086 77.6787 36.8074 77.5948 36.7229V36.7251ZM52.1611 49.0574C52.0316 48.8077 51.8338 48.5999 51.5908 48.4579C51.341 48.3212 51.0608 48.2496 50.7759 48.2496C50.4911 48.2496 50.2109 48.3212 49.9611 48.4579C49.718 48.5999 49.5203 48.8077 49.3908 49.0574C49.2461 49.3373 49.174 49.649 49.1811 49.964C49.1743 50.2799 49.2464 50.5926 49.3908 50.8738C49.5199 51.1243 49.7177 51.333 49.9611 51.4756C50.2106 51.6129 50.491 51.685 50.7759 51.685C51.0609 51.685 51.3412 51.6129 51.5908 51.4756C51.8342 51.333 52.0319 51.1243 52.1611 50.8738C52.3055 50.5926 52.3775 50.2799 52.3707 49.964C52.3778 49.649 52.3057 49.3373 52.1611 49.0574ZM68.0881 37.0698L67.1817 39.8226H69.0067L68.0881 37.0698ZM77.5948 36.7251C77.4292 36.5692 77.1895 36.4909 76.8759 36.4902H75.7033V38.2633H76.8726C77.1943 38.2633 77.4362 38.1869 77.5982 38.0339C77.6828 37.9462 77.7481 37.8416 77.7897 37.7271C77.8314 37.6125 77.8485 37.4906 77.84 37.369C77.8467 37.2501 77.8284 37.1312 77.7861 37.0199C77.7439 36.9086 77.6787 36.8074 77.5948 36.7229V36.7251ZM52.1611 49.0574C52.0316 48.8077 51.8338 48.5999 51.5908 48.4579C51.341 48.3212 51.0608 48.2496 50.7759 48.2496C50.4911 48.2496 50.2109 48.3212 49.9611 48.4579C49.718 48.5999 49.5203 48.8077 49.3908 49.0574C49.2461 49.3373 49.174 49.649 49.1811 49.964C49.1743 50.2799 49.2464 50.5926 49.3908 50.8738C49.5199 51.1243 49.7177 51.333 49.9611 51.4756C50.2106 51.6129 50.491 51.685 50.7759 51.685C51.0609 51.685 51.3412 51.6129 51.5908 51.4756C51.8342 51.333 52.0319 51.1243 52.1611 50.8738C52.3055 50.5926 52.3775 50.2799 52.3707 49.964C52.3778 49.649 52.3057 49.3373 52.1611 49.0574ZM62.9792 48.4956C62.8238 48.3504 62.5786 48.2739 62.2458 48.2739H61.4304V49.9651H62.2514C62.5694 49.9651 62.809 49.8875 62.9703 49.7323C63.0516 49.6512 63.1151 49.554 63.1565 49.4469C63.198 49.3399 63.2166 49.2253 63.211 49.1106C63.2177 48.9973 63.2004 48.8838 63.1605 48.7775C63.1206 48.6711 63.0588 48.5744 62.9792 48.4933V48.4956ZM68.0881 37.0698L67.1817 39.8226H69.0067L68.0881 37.0698ZM77.5948 36.7251C77.4292 36.5692 77.1895 36.4909 76.8759 36.4902H75.7033V38.2633H76.8726C77.1943 38.2633 77.4362 38.1869 77.5982 38.0339C77.6828 37.9462 77.7481 37.8416 77.7897 37.7271C77.8314 37.6125 77.8485 37.4906 77.84 37.369C77.8467 37.2501 77.8284 37.1312 77.7861 37.0199C77.7439 36.9086 77.6787 36.8074 77.5948 36.7229V36.7251ZM62.9792 48.4933C62.8238 48.3482 62.5786 48.2717 62.2458 48.2717H61.4304V49.9628H62.2514C62.5694 49.9628 62.809 49.8853 62.9703 49.7301C63.0516 49.649 63.1151 49.5518 63.1565 49.4447C63.198 49.3376 63.2166 49.2231 63.211 49.1084C63.2174 48.9954 63.2 48.8823 63.16 48.7764C63.1201 48.6705 63.0585 48.5741 62.9792 48.4933ZM52.1611 49.0574C52.0316 48.8077 51.8338 48.5999 51.5908 48.4579C51.341 48.3212 51.0608 48.2496 50.7759 48.2496C50.4911 48.2496 50.2109 48.3212 49.9611 48.4579C49.718 48.5999 49.5203 48.8077 49.3908 49.0574C49.2461 49.3373 49.174 49.649 49.1811 49.964C49.1743 50.2799 49.2464 50.5926 49.3908 50.8738C49.5199 51.1243 49.7177 51.333 49.9611 51.4756C50.2106 51.6129 50.491 51.685 50.7759 51.685C51.0609 51.685 51.3412 51.6129 51.5908 51.4756C51.8342 51.333 52.0319 51.1243 52.1611 50.8738C52.3055 50.5926 52.3775 50.2799 52.3707 49.964C52.3778 49.649 52.3057 49.3373 52.1611 49.0574ZM68.0881 37.0698L67.1817 39.8226H69.0067L68.0881 37.0698ZM77.5948 36.7251C77.4292 36.5692 77.1895 36.4909 76.8759 36.4902H75.7033V38.2633H76.8726C77.1943 38.2633 77.4362 38.1869 77.5982 38.0339C77.6828 37.9462 77.7481 37.8416 77.7897 37.7271C77.8314 37.6125 77.8485 37.4906 77.84 37.369C77.8467 37.2501 77.8284 37.1312 77.7861 37.0199C77.7439 36.9086 77.6787 36.8074 77.5948 36.7229V36.7251ZM52.1611 49.0574C52.0316 48.8077 51.8338 48.5999 51.5908 48.4579C51.341 48.3212 51.0608 48.2496 50.7759 48.2496C50.4911 48.2496 50.2109 48.3212 49.9611 48.4579C49.718 48.5999 49.5203 48.8077 49.3908 49.0574C49.2461 49.3373 49.174 49.649 49.1811 49.964C49.1743 50.2799 49.2464 50.5926 49.3908 50.8738C49.5199 51.1243 49.7177 51.333 49.9611 51.4756C50.2106 51.6129 50.491 51.685 50.7759 51.685C51.0609 51.685 51.3412 51.6129 51.5908 51.4756C51.8342 51.333 52.0319 51.1243 52.1611 50.8738C52.3055 50.5926 52.3775 50.2799 52.3707 49.964C52.3778 49.649 52.3057 49.3373 52.1611 49.0574ZM62.9792 48.4956C62.8238 48.3504 62.5786 48.2739 62.2458 48.2739H61.4304V49.9651H62.2514C62.5694 49.9651 62.809 49.8875 62.9703 49.7323C63.0516 49.6512 63.1151 49.554 63.1565 49.4469C63.198 49.3399 63.2166 49.2253 63.211 49.1106C63.2177 48.9973 63.2004 48.8838 63.1605 48.7775C63.1206 48.6711 63.0588 48.5744 62.9792 48.4933V48.4956ZM68.0881 37.0698L67.1817 39.8226H69.0067L68.0881 37.0698ZM77.5948 36.7251C77.4292 36.5692 77.1895 36.4909 76.8759 36.4902H75.7033V38.2633H76.8726C77.1943 38.2633 77.4362 38.1869 77.5982 38.0339C77.6828 37.9462 77.7481 37.8416 77.7897 37.7271C77.8314 37.6125 77.8485 37.4906 77.84 37.369C77.8467 37.2501 77.8284 37.1312 77.7861 37.0199C77.7439 36.9086 77.6787 36.8074 77.5948 36.7229V36.7251ZM62.9792 48.4933C62.8238 48.3482 62.5786 48.2717 62.2458 48.2717H61.4304V49.9628H62.2514C62.5694 49.9628 62.809 49.8853 62.9703 49.7301C63.0516 49.649 63.1151 49.5518 63.1565 49.4447C63.198 49.3376 63.2166 49.2231 63.211 49.1084C63.2174 48.9954 63.2 48.8823 63.16 48.7764C63.1201 48.6705 63.0585 48.5741 62.9792 48.4933ZM52.1611 49.0574C52.0316 48.8077 51.8338 48.5999 51.5908 48.4579C51.341 48.3212 51.0608 48.2496 50.7759 48.2496C50.4911 48.2496 50.2109 48.3212 49.9611 48.4579C49.718 48.5999 49.5203 48.8077 49.3908 49.0574C49.2461 49.3373 49.174 49.649 49.1811 49.964C49.1743 50.2799 49.2464 50.5926 49.3908 50.8738C49.5199 51.1243 49.7177 51.333 49.9611 51.4756C50.2106 51.6129 50.491 51.685 50.7759 51.685C51.0609 51.685 51.3412 51.6129 51.5908 51.4756C51.8342 51.333 52.0319 51.1243 52.1611 50.8738C52.3055 50.5926 52.3775 50.2799 52.3707 49.964C52.3778 49.649 52.3057 49.3373 52.1611 49.0574ZM68.0881 37.0698L67.1817 39.8226H69.0067L68.0881 37.0698ZM77.5948 36.7251C77.4292 36.5692 77.1895 36.4909 76.8759 36.4902H75.7033V38.2633H76.8726C77.1943 38.2633 77.4362 38.1869 77.5982 38.0339C77.6828 37.9462 77.7481 37.8416 77.7897 37.7271C77.8314 37.6125 77.8485 37.4906 77.84 37.369C77.8467 37.2501 77.8284 37.1312 77.7861 37.0199C77.7439 36.9086 77.6787 36.8074 77.5948 36.7229V36.7251ZM52.1611 49.0574C52.0316 48.8077 51.8338 48.5999 51.5908 48.4579C51.341 48.3212 51.0608 48.2496 50.7759 48.2496C50.4911 48.2496 50.2109 48.3212 49.9611 48.4579C49.718 48.5999 49.5203 48.8077 49.3908 49.0574C49.2461 49.3373 49.174 49.649 49.1811 49.964C49.1743 50.2799 49.2464 50.5926 49.3908 50.8738C49.5199 51.1243 49.7177 51.333 49.9611 51.4756C50.2106 51.6129 50.491 51.685 50.7759 51.685C51.0609 51.685 51.3412 51.6129 51.5908 51.4756C51.8342 51.333 52.0319 51.1243 52.1611 50.8738C52.3055 50.5926 52.3775 50.2799 52.3707 49.964C52.3778 49.649 52.3057 49.3373 52.1611 49.0574ZM62.9792 48.4956C62.8238 48.3504 62.5786 48.2739 62.2458 48.2739H61.4304V49.9651H62.2514C62.5694 49.9651 62.809 49.8875 62.9703 49.7323C63.0516 49.6512 63.1151 49.554 63.1565 49.4469C63.198 49.3399 63.2166 49.2253 63.211 49.1106C63.2177 48.9973 63.2004 48.8838 63.1605 48.7775C63.1206 48.6711 63.0588 48.5744 62.9792 48.4933V48.4956ZM68.0881 37.0698L67.1817 39.8226H69.0067L68.0881 37.0698ZM77.5948 36.7251C77.4292 36.5692 77.1895 36.4909 76.8759 36.4902H75.7033V38.2633H76.8726C77.1943 38.2633 77.4362 38.1869 77.5982 38.0339C77.6828 37.9462 77.7481 37.8416 77.7897 37.7271C77.8314 37.6125 77.8485 37.4906 77.84 37.369C77.8467 37.2501 77.8284 37.1312 77.7861 37.0199C77.7439 36.9086 77.6787 36.8074 77.5948 36.7229V36.7251ZM80.0667 48.725C79.7708 48.4243 79.3393 48.2743 78.772 48.275H77.9743V51.664H78.772C79.3378 51.664 79.7693 51.5162 80.0667 51.2207C80.364 50.9252 80.5119 50.5114 80.5104 49.9795C80.5112 49.4387 80.3633 49.0205 80.0667 48.725ZM80.0667 48.725C79.7708 48.4243 79.3393 48.2743 78.772 48.275H77.9743V51.664H78.772C79.3378 51.664 79.7693 51.5162 80.0667 51.2207C80.364 50.9252 80.5119 50.5114 80.5104 49.9795C80.5112 49.4387 80.3633 49.0205 80.0667 48.725ZM62.9814 48.4978C62.8261 48.3526 62.5809 48.2761 62.248 48.2761H61.4326V49.9673H62.2536C62.5716 49.9673 62.8113 49.8897 62.9725 49.7346C63.0539 49.6535 63.1173 49.5562 63.1588 49.4492C63.2002 49.3421 63.2188 49.2275 63.2132 49.1128C63.2199 48.999 63.2025 48.8849 63.1622 48.7782C63.1218 48.6715 63.0595 48.5744 62.9792 48.4933L62.9814 48.4978ZM52.1611 49.0574C52.0316 48.8077 51.8338 48.5999 51.5908 48.4579C51.341 48.3212 51.0608 48.2496 50.7759 48.2496C50.4911 48.2496 50.2109 48.3212 49.9611 48.4579C49.718 48.5999 49.5203 48.8077 49.3908 49.0574C49.2461 49.3373 49.174 49.649 49.1811 49.964C49.1743 50.2799 49.2464 50.5926 49.3908 50.8738C49.5199 51.1243 49.7177 51.333 49.9611 51.4756C50.2106 51.6129 50.491 51.685 50.7759 51.685C51.0609 51.685 51.3412 51.6129 51.5908 51.4756C51.8342 51.333 52.0319 51.1243 52.1611 50.8738C52.3055 50.5926 52.3775 50.2799 52.3707 49.964C52.3778 49.649 52.3057 49.3373 52.1611 49.0574ZM68.0881 37.0698L67.1817 39.8226H69.0067L68.0881 37.0698ZM77.5948 36.7251C77.4292 36.5692 77.1895 36.4909 76.8759 36.4902H75.7033V38.2633H76.8726C77.1943 38.2633 77.4362 38.1869 77.5982 38.0339C77.6828 37.9462 77.7481 37.8416 77.7897 37.7271C77.8314 37.6125 77.8485 37.4906 77.84 37.369C77.8467 37.2501 77.8284 37.1312 77.7861 37.0199C77.7439 36.9086 77.6787 36.8074 77.5948 36.7229V36.7251ZM52.1611 49.0574C52.0316 48.8077 51.8338 48.5999 51.5908 48.4579C51.341 48.3212 51.0608 48.2496 50.7759 48.2496C50.4911 48.2496 50.2109 48.3212 49.9611 48.4579C49.718 48.5999 49.5203 48.8077 49.3908 49.0574C49.2461 49.3373 49.174 49.649 49.1811 49.964C49.1743 50.2799 49.2464 50.5926 49.3908 50.8738C49.5199 51.1243 49.7177 51.333 49.9611 51.4756C50.2106 51.6129 50.491 51.685 50.7759 51.685C51.0609 51.685 51.3412 51.6129 51.5908 51.4756C51.8342 51.333 52.0319 51.1243 52.1611 50.8738C52.3055 50.5926 52.3775 50.2799 52.3707 49.964C52.3778 49.649 52.3057 49.3373 52.1611 49.0574ZM62.9792 48.4956C62.8238 48.3504 62.5786 48.2739 62.2458 48.2739H61.4304V49.9651H62.2514C62.5694 49.9651 62.809 49.8875 62.9703 49.7323C63.0516 49.6512 63.1151 49.554 63.1565 49.4469C63.198 49.3399 63.2166 49.2253 63.211 49.1106C63.2177 48.9973 63.2004 48.8838 63.1605 48.7775C63.1206 48.6711 63.0588 48.5744 62.9792 48.4933V48.4956ZM68.0881 37.0698L67.1817 39.8226H69.0067L68.0881 37.0698ZM77.5948 36.7251C77.4292 36.5692 77.1895 36.4909 76.8759 36.4902H75.7033V38.2633H76.8726C77.1943 38.2633 77.4362 38.1869 77.5982 38.0339C77.6828 37.9462 77.7481 37.8416 77.7897 37.7271C77.8314 37.6125 77.8485 37.4906 77.84 37.369C77.8467 37.2501 77.8284 37.1312 77.7861 37.0199C77.7439 36.9086 77.6787 36.8074 77.5948 36.7229V36.7251ZM80.0667 48.725C79.7708 48.4243 79.3393 48.2743 78.772 48.275H77.9743V51.664H78.772C79.3378 51.664 79.7693 51.5162 80.0667 51.2207C80.364 50.9252 80.5119 50.5114 80.5104 49.9795C80.5112 49.4387 80.3633 49.0205 80.0667 48.725ZM80.0667 48.725C79.7708 48.4243 79.3393 48.2743 78.772 48.275H77.9743V51.664H78.772C79.3378 51.664 79.7693 51.5162 80.0667 51.2207C80.364 50.9252 80.5119 50.5114 80.5104 49.9795C80.5112 49.4387 80.3633 49.0205 80.0667 48.725ZM62.9814 48.4978C62.8261 48.3526 62.5809 48.2761 62.248 48.2761H61.4326V49.9673H62.2536C62.5716 49.9673 62.8113 49.8897 62.9725 49.7346C63.0539 49.6535 63.1173 49.5562 63.1588 49.4492C63.2002 49.3421 63.2188 49.2275 63.2132 49.1128C63.2199 48.999 63.2025 48.8849 63.1622 48.7782C63.1218 48.6715 63.0595 48.5744 62.9792 48.4933L62.9814 48.4978ZM52.1611 49.0574C52.0316 48.8077 51.8338 48.5999 51.5908 48.4579C51.341 48.3212 51.0608 48.2496 50.7759 48.2496C50.4911 48.2496 50.2109 48.3212 49.9611 48.4579C49.718 48.5999 49.5203 48.8077 49.3908 49.0574C49.2461 49.3373 49.174 49.649 49.1811 49.964C49.1743 50.2799 49.2464 50.5926 49.3908 50.8738C49.5199 51.1243 49.7177 51.333 49.9611 51.4756C50.2106 51.6129 50.491 51.685 50.7759 51.685C51.0609 51.685 51.3412 51.6129 51.5908 51.4756C51.8342 51.333 52.0319 51.1243 52.1611 50.8738C52.3055 50.5926 52.3775 50.2799 52.3707 49.964C52.3778 49.649 52.3057 49.3373 52.1611 49.0574ZM68.0881 37.0698L67.1817 39.8226H69.0067L68.0881 37.0698ZM77.5948 36.7251C77.4292 36.5692 77.1895 36.4909 76.8759 36.4902H75.7033V38.2633H76.8726C77.1943 38.2633 77.4362 38.1869 77.5982 38.0339C77.6828 37.9462 77.7481 37.8416 77.7897 37.7271C77.8314 37.6125 77.8485 37.4906 77.84 37.369C77.8467 37.2501 77.8284 37.1312 77.7861 37.0199C77.7439 36.9086 77.6787 36.8074 77.5948 36.7229V36.7251ZM52.1611 49.0574C52.0316 48.8077 51.8338 48.5999 51.5908 48.4579C51.341 48.3212 51.0608 48.2496 50.7759 48.2496C50.4911 48.2496 50.2109 48.3212 49.9611 48.4579C49.718 48.5999 49.5203 48.8077 49.3908 49.0574C49.2461 49.3373 49.174 49.649 49.1811 49.964C49.1743 50.2799 49.2464 50.5926 49.3908 50.8738C49.5199 51.1243 49.7177 51.333 49.9611 51.4756C50.2106 51.6129 50.491 51.685 50.7759 51.685C51.0609 51.685 51.3412 51.6129 51.5908 51.4756C51.8342 51.333 52.0319 51.1243 52.1611 50.8738C52.3055 50.5926 52.3775 50.2799 52.3707 49.964C52.3778 49.649 52.3057 49.3373 52.1611 49.0574ZM62.9792 48.4956C62.8238 48.3504 62.5786 48.2739 62.2458 48.2739H61.4304V49.9651H62.2514C62.5694 49.9651 62.809 49.8875 62.9703 49.7323C63.0516 49.6512 63.1151 49.554 63.1565 49.4469C63.198 49.3399 63.2166 49.2253 63.211 49.1106C63.2177 48.9973 63.2004 48.8838 63.1605 48.7775C63.1206 48.6711 63.0588 48.5744 62.9792 48.4933V48.4956ZM68.0881 37.0698L67.1817 39.8226H69.0067L68.0881 37.0698ZM77.5948 36.7251C77.4292 36.5692 77.1895 36.4909 76.8759 36.4902H75.7033V38.2633H76.8726C77.1943 38.2633 77.4362 38.1869 77.5982 38.0339C77.6828 37.9462 77.7481 37.8416 77.7897 37.7271C77.8314 37.6125 77.8485 37.4906 77.84 37.369C77.8467 37.2501 77.8284 37.1312 77.7861 37.0199C77.7439 36.9086 77.6787 36.8074 77.5948 36.7229V36.7251ZM80.0667 48.725C79.7708 48.4243 79.3393 48.2743 78.772 48.275H77.9743V51.664H78.772C79.3378 51.664 79.7693 51.5162 80.0667 51.2207C80.364 50.9252 80.5119 50.5114 80.5104 49.9795C80.5112 49.4387 80.3633 49.0205 80.0667 48.725ZM91.556 48.49C91.4081 48.3504 91.1658 48.2806 90.8293 48.2806H90.0083V49.9196H90.8293C91.4654 49.9196 91.7834 49.6485 91.7834 49.1062C91.7923 48.9925 91.7766 48.8782 91.7373 48.7711C91.6981 48.6641 91.6363 48.5667 91.556 48.4856V48.49ZM91.556 48.49C91.4081 48.3504 91.1658 48.2806 90.8293 48.2806H90.0083V49.9196H90.8293C91.4654 49.9196 91.7834 49.6485 91.7834 49.1062C91.7923 48.9925 91.7766 48.8782 91.7373 48.7711C91.6981 48.6641 91.6363 48.5667 91.556 48.4856V48.49ZM80.0667 48.725C79.7708 48.4243 79.3393 48.2743 78.772 48.275H77.9743V51.664H78.772C79.3378 51.664 79.7693 51.5162 80.0667 51.2207C80.364 50.9252 80.5119 50.5114 80.5104 49.9795C80.5112 49.4387 80.3633 49.0205 80.0667 48.725ZM62.9814 48.4978C62.8261 48.3526 62.5809 48.2761 62.248 48.2761H61.4326V49.9673H62.2536C62.5716 49.9673 62.8113 49.8897 62.9725 49.7346C63.0539 49.6535 63.1173 49.5562 63.1588 49.4492C63.2002 49.3421 63.2188 49.2275 63.2132 49.1128C63.2199 48.999 63.2025 48.8849 63.1622 48.7782C63.1218 48.6715 63.0595 48.5744 62.9792 48.4933L62.9814 48.4978ZM52.1611 49.0574C52.0316 48.8077 51.8338 48.5999 51.5908 48.4579C51.341 48.3212 51.0608 48.2496 50.7759 48.2496C50.4911 48.2496 50.2109 48.3212 49.9611 48.4579C49.718 48.5999 49.5203 48.8077 49.3908 49.0574C49.2461 49.3373 49.174 49.649 49.1811 49.964C49.1743 50.2799 49.2464 50.5926 49.3908 50.8738C49.5199 51.1243 49.7177 51.333 49.9611 51.4756C50.2106 51.6129 50.491 51.685 50.7759 51.685C51.0609 51.685 51.3412 51.6129 51.5908 51.4756C51.8342 51.333 52.0319 51.1243 52.1611 50.8738C52.3055 50.5926 52.3775 50.2799 52.3707 49.964C52.3778 49.649 52.3057 49.3373 52.1611 49.0574ZM68.0881 37.0698L67.1817 39.8226H69.0067L68.0881 37.0698ZM77.5948 36.7251C77.4292 36.5692 77.1895 36.4909 76.8759 36.4902H75.7033V38.2633H76.8726C77.1943 38.2633 77.4362 38.1869 77.5982 38.0339C77.6828 37.9462 77.7481 37.8416 77.7897 37.7271C77.8314 37.6125 77.8485 37.4906 77.84 37.369C77.8467 37.2501 77.8284 37.1312 77.7861 37.0199C77.7439 36.9086 77.6787 36.8074 77.5948 36.7229V36.7251ZM52.1611 49.0574C52.0316 48.8077 51.8338 48.5999 51.5908 48.4579C51.341 48.3212 51.0608 48.2496 50.7759 48.2496C50.4911 48.2496 50.2109 48.3212 49.9611 48.4579C49.718 48.5999 49.5203 48.8077 49.3908 49.0574C49.2461 49.3373 49.174 49.649 49.1811 49.964C49.1743 50.2799 49.2464 50.5926 49.3908 50.8738C49.5199 51.1243 49.7177 51.333 49.9611 51.4756C50.2106 51.6129 50.491 51.685 50.7759 51.685C51.0609 51.685 51.3412 51.6129 51.5908 51.4756C51.8342 51.333 52.0319 51.1243 52.1611 50.8738C52.3055 50.5926 52.3775 50.2799 52.3707 49.964C52.3778 49.649 52.3057 49.3373 52.1611 49.0574ZM62.9792 48.4956C62.8238 48.3504 62.5786 48.2739 62.2458 48.2739H61.4304V49.9651H62.2514C62.5694 49.9651 62.809 49.8875 62.9703 49.7323C63.0516 49.6512 63.1151 49.554 63.1565 49.4469C63.198 49.3399 63.2166 49.2253 63.211 49.1106C63.2177 48.9973 63.2004 48.8838 63.1605 48.7775C63.1206 48.6711 63.0588 48.5744 62.9792 48.4933V48.4956ZM68.0881 37.0698L67.1817 39.8226H69.0067L68.0881 37.0698ZM77.5948 36.7251C77.4292 36.5692 77.1895 36.4909 76.8759 36.4902H75.7033V38.2633H76.8726C77.1943 38.2633 77.4362 38.1869 77.5982 38.0339C77.6828 37.9462 77.7481 37.8416 77.7897 37.7271C77.8314 37.6125 77.8485 37.4906 77.84 37.369C77.8467 37.2501 77.8284 37.1312 77.7861 37.0199C77.7439 36.9086 77.6787 36.8074 77.5948 36.7229V36.7251ZM80.0667 48.725C79.7708 48.4243 79.3393 48.2743 78.772 48.275H77.9743V51.664H78.772C79.3378 51.664 79.7693 51.5162 80.0667 51.2207C80.364 50.9252 80.5119 50.5114 80.5104 49.9795C80.5112 49.4387 80.3633 49.0205 80.0667 48.725ZM91.556 48.49C91.4081 48.3504 91.1658 48.2806 90.8293 48.2806H90.0083V49.9196H90.8293C91.4654 49.9196 91.7834 49.6485 91.7834 49.1062C91.7923 48.9925 91.7766 48.8782 91.7373 48.7711C91.6981 48.6641 91.6363 48.5667 91.556 48.4856V48.49ZM97.7688 48.4978C97.6135 48.35 97.369 48.2761 97.0355 48.2761H96.2211V49.9673H97.041C97.3591 49.9673 97.5987 49.8897 97.7599 49.7346C97.8414 49.6535 97.905 49.5563 97.9467 49.4493C97.9883 49.3422 98.0071 49.2276 98.0018 49.1128C98.0083 48.9988 97.9907 48.8846 97.95 48.7778C97.9092 48.6711 97.8464 48.5741 97.7655 48.4933L97.7688 48.4978ZM97.7688 48.4978C97.6135 48.35 97.369 48.2761 97.0355 48.2761H96.2211V49.9673H97.041C97.3591 49.9673 97.5987 49.8897 97.7599 49.7346C97.8414 49.6535 97.905 49.5563 97.9467 49.4493C97.9883 49.3422 98.0071 49.2276 98.0018 49.1128C98.0083 48.9988 97.9907 48.8846 97.95 48.7778C97.9092 48.6711 97.8464 48.5741 97.7655 48.4933L97.7688 48.4978ZM91.556 48.49C91.4081 48.3504 91.1658 48.2806 90.8293 48.2806H90.0083V49.9196H90.8293C91.4654 49.9196 91.7834 49.6485 91.7834 49.1062C91.7923 48.9925 91.7766 48.8782 91.7373 48.7711C91.6981 48.6641 91.6363 48.5667 91.556 48.4856V48.49ZM80.0667 48.725C79.7708 48.4243 79.3393 48.2743 78.772 48.275H77.9743V51.664H78.772C79.3378 51.664 79.7693 51.5162 80.0667 51.2207C80.364 50.9252 80.5119 50.5114 80.5104 49.9795C80.5112 49.4387 80.3633 49.0205 80.0667 48.725ZM62.9814 48.4978C62.8261 48.3526 62.5809 48.2761 62.248 48.2761H61.4326V49.9673H62.2536C62.5716 49.9673 62.8113 49.8897 62.9725 49.7346C63.0539 49.6535 63.1173 49.5562 63.1588 49.4492C63.2002 49.3421 63.2188 49.2275 63.2132 49.1128C63.2199 48.999 63.2025 48.8849 63.1622 48.7782C63.1218 48.6715 63.0595 48.5744 62.9792 48.4933L62.9814 48.4978ZM52.1611 49.0574C52.0316 48.8077 51.8338 48.5999 51.5908 48.4579C51.341 48.3212 51.0608 48.2496 50.7759 48.2496C50.4911 48.2496 50.2109 48.3212 49.9611 48.4579C49.718 48.5999 49.5203 48.8077 49.3908 49.0574C49.2461 49.3373 49.174 49.649 49.1811 49.964C49.1743 50.2799 49.2464 50.5926 49.3908 50.8738C49.5199 51.1243 49.7177 51.333 49.9611 51.4756C50.2106 51.6129 50.491 51.685 50.7759 51.685C51.0609 51.685 51.3412 51.6129 51.5908 51.4756C51.8342 51.333 52.0319 51.1243 52.1611 50.8738C52.3055 50.5926 52.3775 50.2799 52.3707 49.964C52.3778 49.649 52.3057 49.3373 52.1611 49.0574ZM68.0881 37.0698L67.1817 39.8226H69.0067L68.0881 37.0698ZM77.5948 36.7251C77.4292 36.5692 77.1895 36.4909 76.8759 36.4902H75.7033V38.2633H76.8726C77.1943 38.2633 77.4362 38.1869 77.5982 38.0339C77.6828 37.9462 77.7481 37.8416 77.7897 37.7271C77.8314 37.6125 77.8485 37.4906 77.84 37.369C77.8467 37.2501 77.8284 37.1312 77.7861 37.0199C77.7439 36.9086 77.6787 36.8074 77.5948 36.7229V36.7251ZM52.1611 49.0574C52.0316 48.8077 51.8338 48.5999 51.5908 48.4579C51.341 48.3212 51.0608 48.2496 50.7759 48.2496C50.4911 48.2496 50.2109 48.3212 49.9611 48.4579C49.718 48.5999 49.5203 48.8077 49.3908 49.0574C49.2461 49.3373 49.174 49.649 49.1811 49.964C49.1743 50.2799 49.2464 50.5926 49.3908 50.8738C49.5199 51.1243 49.7177 51.333 49.9611 51.4756C50.2106 51.6129 50.491 51.685 50.7759 51.685C51.0609 51.685 51.3412 51.6129 51.5908 51.4756C51.8342 51.333 52.0319 51.1243 52.1611 50.8738C52.3055 50.5926 52.3775 50.2799 52.3707 49.964C52.3778 49.649 52.3057 49.3373 52.1611 49.0574ZM62.9792 48.4956C62.8238 48.3504 62.5786 48.2739 62.2458 48.2739H61.4304V49.9651H62.2514C62.5694 49.9651 62.809 49.8875 62.9703 49.7323C63.0516 49.6512 63.1151 49.554 63.1565 49.4469C63.198 49.3399 63.2166 49.2253 63.211 49.1106C63.2177 48.9973 63.2004 48.8838 63.1605 48.7775C63.1206 48.6711 63.0588 48.5744 62.9792 48.4933V48.4956ZM68.0881 37.0698L67.1817 39.8226H69.0067L68.0881 37.0698ZM77.5948 36.7251C77.4292 36.5692 77.1895 36.4909 76.8759 36.4902H75.7033V38.2633H76.8726C77.1943 38.2633 77.4362 38.1869 77.5982 38.0339C77.6828 37.9462 77.7481 37.8416 77.7897 37.7271C77.8314 37.6125 77.8485 37.4906 77.84 37.369C77.8467 37.2501 77.8284 37.1312 77.7861 37.0199C77.7439 36.9086 77.6787 36.8074 77.5948 36.7229V36.7251ZM80.0667 48.725C79.7708 48.4243 79.3393 48.2743 78.772 48.275H77.9743V51.664H78.772C79.3378 51.664 79.7693 51.5162 80.0667 51.2207C80.364 50.9252 80.5119 50.5114 80.5104 49.9795C80.5112 49.4387 80.3633 49.0205 80.0667 48.725ZM91.556 48.49C91.4081 48.3504 91.1658 48.2806 90.8293 48.2806H90.0083V49.9196H90.8293C91.4654 49.9196 91.7834 49.6485 91.7834 49.1062C91.7923 48.9925 91.7766 48.8782 91.7373 48.7711C91.6981 48.6641 91.6363 48.5667 91.556 48.4856V48.49ZM97.7688 48.4978C97.6135 48.35 97.369 48.2761 97.0355 48.2761H96.2211V49.9673H97.041C97.3591 49.9673 97.5987 49.8897 97.7599 49.7346C97.8414 49.6535 97.905 49.5563 97.9467 49.4493C97.9883 49.3422 98.0071 49.2276 98.0018 49.1128C98.0083 48.9988 97.9907 48.8846 97.95 48.7778C97.9092 48.6711 97.8464 48.5741 97.7655 48.4933L97.7688 48.4978ZM97.7688 48.4978C97.6135 48.35 97.369 48.2761 97.0355 48.2761H96.2211V49.9673H97.041C97.3591 49.9673 97.5987 49.8897 97.7599 49.7346C97.8414 49.6535 97.905 49.5563 97.9467 49.4493C97.9883 49.3422 98.0071 49.2276 98.0018 49.1128C98.0083 48.9988 97.9907 48.8846 97.95 48.7778C97.9092 48.6711 97.8464 48.5741 97.7655 48.4933L97.7688 48.4978ZM91.556 48.49C91.4081 48.3504 91.1658 48.2806 90.8293 48.2806H90.0083V49.9196H90.8293C91.4654 49.9196 91.7834 49.6485 91.7834 49.1062C91.7923 48.9925 91.7766 48.8782 91.7373 48.7711C91.6981 48.6641 91.6363 48.5667 91.556 48.4856V48.49ZM80.0667 48.725C79.7708 48.4243 79.3393 48.2743 78.772 48.275H77.9743V51.664H78.772C79.3378 51.664 79.7693 51.5162 80.0667 51.2207C80.364 50.9252 80.5119 50.5114 80.5104 49.9795C80.5112 49.4387 80.3633 49.0205 80.0667 48.725ZM62.9814 48.4978C62.8261 48.3526 62.5809 48.2761 62.248 48.2761H61.4326V49.9673H62.2536C62.5716 49.9673 62.8113 49.8897 62.9725 49.7346C63.0539 49.6535 63.1173 49.5562 63.1588 49.4492C63.2002 49.3421 63.2188 49.2275 63.2132 49.1128C63.2199 48.999 63.2025 48.8849 63.1622 48.7782C63.1218 48.6715 63.0595 48.5744 62.9792 48.4933L62.9814 48.4978ZM52.1611 49.0574C52.0316 48.8077 51.8338 48.5999 51.5908 48.4579C51.341 48.3212 51.0608 48.2496 50.7759 48.2496C50.4911 48.2496 50.2109 48.3212 49.9611 48.4579C49.718 48.5999 49.5203 48.8077 49.3908 49.0574C49.2461 49.3373 49.174 49.649 49.1811 49.964C49.1743 50.2799 49.2464 50.5926 49.3908 50.8738C49.5199 51.1243 49.7177 51.333 49.9611 51.4756C50.2106 51.6129 50.491 51.685 50.7759 51.685C51.0609 51.685 51.3412 51.6129 51.5908 51.4756C51.8342 51.333 52.0319 51.1243 52.1611 50.8738C52.3055 50.5926 52.3775 50.2799 52.3707 49.964C52.3778 49.649 52.3057 49.3373 52.1611 49.0574ZM68.0881 37.0698L67.1817 39.8226H69.0067L68.0881 37.0698ZM77.5948 36.7251C77.4292 36.5692 77.1895 36.4909 76.8759 36.4902H75.7033V38.2633H76.8726C77.1943 38.2633 77.4362 38.1869 77.5982 38.0339C77.6828 37.9462 77.7481 37.8416 77.7897 37.7271C77.8314 37.6125 77.8485 37.4906 77.84 37.369C77.8467 37.2501 77.8284 37.1312 77.7861 37.0199C77.7439 36.9086 77.6787 36.8074 77.5948 36.7229V36.7251ZM58.3317 46.1927L59.8084 44.7176H90.5652V32.4219H45.196C45.1901 32.4736 45.1835 32.5257 45.1761 32.5781C44.5104 37.5153 43.0803 41.8063 40.9181 45.3349C40.5852 45.8691 40.2435 46.3899 39.8852 46.8864C39.365 47.6084 38.8045 48.3007 38.2066 48.9599C36.4687 50.8919 34.3884 52.4865 32.0703 53.6632H111.676V46.1905L58.3317 46.1927ZM84.8539 40.0398C84.4913 39.8497 84.1108 39.696 83.7178 39.581C83.2562 39.4342 82.8058 39.2546 82.3699 39.0435C82.017 38.862 81.7107 38.6019 81.4745 38.2833C81.2216 37.9486 81.0947 37.5119 81.094 36.9734C81.0803 36.4727 81.2243 35.9804 81.5056 35.5659C81.7905 35.1669 82.1851 34.8589 82.6417 34.6793C83.1641 34.4703 83.7231 34.3675 84.2859 34.3768C85.2762 34.3768 86.0676 34.6084 86.66 35.0716C87.2525 35.5349 87.569 36.1847 87.6097 37.021H85.0347C85.0389 36.9133 85.0201 36.8059 84.9795 36.7059C84.939 36.606 84.8776 36.5158 84.7995 36.4414C84.6382 36.3086 84.4336 36.24 84.2248 36.2486C84.0648 36.2421 83.9087 36.2986 83.7899 36.4059C83.7318 36.4636 83.6865 36.5329 83.6572 36.6093C83.628 36.6858 83.6154 36.7675 83.6202 36.8492C83.62 36.928 83.6366 37.0059 83.6689 37.0778C83.7013 37.1496 83.7486 37.2138 83.8077 37.2659C83.9458 37.3908 84.1031 37.4926 84.2736 37.5674C84.4589 37.6516 84.733 37.7591 85.0957 37.8876C85.5519 38.0389 85.9968 38.2222 86.4271 38.4362C86.7814 38.621 87.0912 38.8808 87.3346 39.1976C87.598 39.5549 87.7321 39.9909 87.7151 40.4343C87.7219 40.9165 87.5898 41.3904 87.3346 41.7997C87.0655 42.2151 86.6838 42.5456 86.234 42.7527C85.7021 42.9977 85.121 43.1175 84.5355 43.1029C83.5451 43.1029 82.7315 42.8676 82.0947 42.397C81.4579 41.9264 81.1155 41.2522 81.0674 40.3745H83.5936C83.6172 40.67 83.7056 40.8872 83.8587 41.0261C84.0183 41.152 84.2139 41.224 84.4171 41.2315C84.6203 41.2391 84.8207 41.1819 84.9892 41.0682C85.0584 41.0155 85.1138 40.9468 85.1507 40.8681C85.1876 40.7894 85.2049 40.7029 85.2011 40.6161C85.2026 40.497 85.1709 40.3798 85.1096 40.2777C85.0482 40.1755 84.9597 40.0924 84.8539 40.0376V40.0398ZM73.3346 34.5098H77.069C77.7546 34.5098 78.3348 34.6283 78.8097 34.8655C79.2575 35.078 79.632 35.4186 79.8858 35.8441C80.13 36.2677 80.2554 36.7494 80.2486 37.2382C80.2587 37.7855 80.091 38.3213 79.7705 38.7654C79.4524 39.2042 78.9872 39.5164 78.3748 39.7018L80.2963 43.0265H77.6492L75.9573 39.8869H75.7033V43.0265H73.3346V34.5098ZM66.7346 34.5098H69.466L72.5613 43.022H70.0585L69.5991 41.6323H66.5771L66.1178 43.0209H63.6282L66.7346 34.5098ZM52.5272 51.0345C52.3602 51.3427 52.1105 51.5983 51.8061 51.7726C51.4914 51.9456 51.138 52.0364 50.7787 52.0364C50.4195 52.0364 50.0661 51.9456 49.7514 51.7726C49.4465 51.5979 49.1958 51.3424 49.0269 51.0345C48.8535 50.7034 48.7629 50.3354 48.7629 49.9617C48.7629 49.5881 48.8535 49.22 49.0269 48.889C49.1958 48.581 49.4465 48.3256 49.7514 48.1509C50.0658 47.9771 50.4193 47.886 50.7787 47.886C51.1381 47.886 51.4916 47.9771 51.8061 48.1509C52.1105 48.3251 52.3602 48.5807 52.5272 48.889C52.6995 49.2204 52.7895 49.5883 52.7895 49.9617C52.7895 50.3352 52.6995 50.7031 52.5272 51.0345ZM55.7334 48.2706H53.9417V49.7877H55.4605V50.1202H53.9473V51.992H53.5401V47.9326H55.739L55.7334 48.2706ZM53.8618 40.3146V43.0198H51.481V40.3146L48.4855 34.5076H51.1925L52.6869 37.7912L54.1858 34.5076H56.8573L53.8618 40.3146ZM57.5851 34.5076H63.0357V36.4037H59.9537V37.7912H62.6718V39.591H59.9537V41.1237H63.0357V43.0198H57.5851V34.5076ZM60.3775 48.2706H59.2481V51.9964H58.841V48.2706H57.706V47.9326H60.3775V48.2706ZM63.1877 51.9964L62.1815 50.2986H61.4304V51.9964H61.0232V47.9326H62.2436C62.6977 47.9326 63.042 48.0412 63.2765 48.2584C63.3932 48.3672 63.485 48.4998 63.5457 48.6473C63.6064 48.7947 63.6346 48.9535 63.6282 49.1128C63.6356 49.3857 63.546 49.6523 63.3752 49.8653C63.183 50.0859 62.9174 50.2296 62.6275 50.2698L63.6748 51.9964H63.1877ZM67.3781 50.4848C67.3781 51.002 67.2412 51.3895 66.9676 51.6473C66.6681 51.8976 66.2902 52.0347 65.8997 52.0347C65.5093 52.0347 65.1314 51.8976 64.8319 51.6473C64.559 51.388 64.4222 51.0005 64.4214 50.4848V47.9359H64.8297V50.4937C64.8297 50.8971 64.9255 51.1956 65.117 51.3891C65.2217 51.4888 65.3457 51.566 65.4813 51.6159C65.617 51.6658 65.7615 51.6875 65.9058 51.6795C66.048 51.6871 66.1903 51.6656 66.3239 51.6163C66.4574 51.5669 66.5795 51.4907 66.6824 51.3925C66.871 51.2007 66.9654 50.9004 66.9654 50.4937V47.9326H67.3725L67.3781 50.4848ZM70.6775 51.4667C70.5709 51.643 70.4172 51.7862 70.2337 51.8801C70.0134 51.9894 69.7696 52.043 69.5237 52.0363C69.2809 52.0411 69.0399 51.9939 68.817 51.8978C68.6244 51.8137 68.4584 51.6788 68.3366 51.5077C68.2217 51.3451 68.1569 51.1525 68.1502 50.9536H68.5807C68.6019 51.1528 68.695 51.3376 68.8425 51.4734C68.9979 51.6211 69.2249 51.695 69.5237 51.695C69.7606 51.7077 69.9938 51.6323 70.1783 51.4833C70.2561 51.4171 70.3181 51.3344 70.36 51.2412C70.4018 51.1481 70.4224 51.0468 70.4201 50.9447C70.4276 50.7928 70.3799 50.6433 70.2859 50.5236C70.1971 50.4172 70.0825 50.3351 69.9531 50.2853C69.774 50.2181 69.5915 50.1607 69.4061 50.1136C69.1859 50.0577 68.9701 49.9858 68.7604 49.8986C68.5989 49.8268 68.4586 49.7145 68.3533 49.5728C68.2318 49.3976 68.1725 49.187 68.1846 48.9743C68.1818 48.7753 68.2386 48.58 68.3477 48.4135C68.4613 48.244 68.6205 48.1099 68.807 48.0268C69.0209 47.9303 69.2536 47.8826 69.4882 47.8871C69.8146 47.8717 70.1362 47.9692 70.399 48.1631C70.51 48.249 70.6024 48.3564 70.6709 48.4788C70.7393 48.6013 70.7823 48.7363 70.7973 48.8757H70.3536C70.3206 48.6993 70.2233 48.5414 70.0807 48.4324C69.8988 48.3055 69.6823 48.2374 69.4605 48.2374C69.2386 48.2374 69.0222 48.3055 68.8403 48.4324C68.7606 48.4956 68.6969 48.5767 68.6545 48.6692C68.6121 48.7616 68.5921 48.8627 68.5962 48.9643C68.5889 49.1135 68.6367 49.2603 68.7305 49.3766C68.8202 49.482 68.9345 49.5638 69.0633 49.6149C69.2413 49.6837 69.4232 49.7422 69.608 49.79C69.8262 49.8492 70.0401 49.9233 70.2482 50.0116C70.4122 50.085 70.5544 50.1995 70.6609 50.3441C70.7816 50.5174 70.8409 50.7261 70.8295 50.937C70.8274 51.124 70.7749 51.307 70.6775 51.4667ZM73.9947 48.2706H72.8653V51.9964H72.4582V48.2706H71.3254V47.9326H73.997L73.9947 48.2706ZM76.7683 48.2639H75.052V49.7811H76.5941V50.1136H75.052V51.6551H76.7617V51.9876H74.6382V47.927H76.7617L76.7683 48.2639ZM80.6735 51.0578C80.5043 51.3601 80.2464 51.6033 79.9347 51.7548C79.5726 51.9242 79.176 52.0069 78.7764 51.9964H77.5716V47.9326H78.7764C79.1764 47.9221 79.5732 48.006 79.9347 48.1775C80.2468 48.3311 80.5046 48.5763 80.6735 48.8801C80.8514 49.2164 80.9396 49.5927 80.9298 49.9728C80.9384 50.3509 80.8485 50.7247 80.6691 51.0578H80.6735ZM85.3986 48.2639H83.6823V49.7811H85.2233V50.1136H83.6823V51.6551H85.3986V51.9876H83.274V47.927H85.3986V48.2639ZM88.9022 51.9964H88.4473L87.4122 50.2986L86.4282 51.9964H85.97L87.1981 49.9495L85.97 47.9326H86.4237L87.4544 49.6248L88.4529 47.9326H88.9066L87.6663 49.9673L88.9022 51.9964ZM91.8589 49.944C91.6303 50.1583 91.2871 50.265 90.8293 50.2643H90.0083V51.9964H89.6011V47.9326H90.8293C91.2827 47.9326 91.6251 48.0393 91.8566 48.2529C92.0779 48.4788 92.2019 48.7823 92.2019 49.0984C92.2019 49.4145 92.0779 49.7181 91.8566 49.944H91.8589ZM95.0074 48.2639H93.2922V49.7811H94.8343V50.1136H93.2922V51.6551H95.0085V51.9876H92.884V47.927H95.0085L95.0074 48.2639ZM97.9752 51.9964L96.9678 50.2986H96.2178V51.9964H95.8106V47.9326H97.031C97.4852 47.9326 97.8295 48.0412 98.0639 48.2584C98.1808 48.3671 98.2729 48.4997 98.3337 48.6471C98.3946 48.7946 98.4229 48.9534 98.4167 49.1128C98.4237 49.3858 98.3337 49.6524 98.1626 49.8653C97.9704 50.0859 97.7048 50.2296 97.4149 50.2698L98.4622 51.9964H97.9752ZM101.606 48.2706H100.477V51.9964H100.07V48.2706H98.9348V47.9326H101.606V48.2706ZM102.659 51.9964H102.252V47.9326H102.659V51.9964ZM105.976 51.4667C105.87 51.643 105.716 51.7862 105.533 51.8801C105.312 51.9894 105.068 52.043 104.823 52.0363C104.58 52.0411 104.339 51.9939 104.116 51.8978C103.923 51.8137 103.757 51.6788 103.635 51.5077C103.521 51.3451 103.456 51.1525 103.449 50.9536H103.88C103.901 51.1528 103.994 51.3376 104.141 51.4734C104.297 51.6211 104.524 51.695 104.823 51.695C105.059 51.7077 105.293 51.6323 105.477 51.4833C105.555 51.4166 105.617 51.3334 105.659 51.2396C105.701 51.1458 105.721 51.0439 105.718 50.9414C105.725 50.7895 105.678 50.6399 105.584 50.5203C105.495 50.4138 105.38 50.3318 105.251 50.282C105.072 50.2147 104.889 50.1574 104.704 50.1102C104.484 50.0544 104.268 49.9825 104.058 49.8952C103.897 49.8234 103.756 49.7112 103.651 49.5694C103.53 49.3943 103.47 49.1837 103.482 48.971C103.48 48.772 103.536 48.5767 103.645 48.4102C103.759 48.2406 103.918 48.1066 104.105 48.0235C104.319 47.9269 104.551 47.8792 104.786 47.8838C105.112 47.8684 105.434 47.9659 105.697 48.1598C105.808 48.2457 105.9 48.3531 105.969 48.4755C106.037 48.598 106.08 48.7329 106.095 48.8724H105.651C105.618 48.696 105.521 48.5381 105.378 48.4291C105.197 48.3021 104.98 48.2341 104.758 48.2341C104.536 48.2341 104.32 48.3021 104.138 48.4291C104.058 48.4923 103.995 48.5734 103.952 48.6659C103.91 48.7583 103.89 48.8594 103.894 48.961C103.887 49.1102 103.934 49.2569 104.028 49.3733C104.118 49.4787 104.232 49.5605 104.361 49.6115C104.539 49.6804 104.721 49.7389 104.906 49.7866C105.124 49.8459 105.338 49.9199 105.546 50.0083C105.71 50.0817 105.852 50.1962 105.959 50.3408C106.079 50.5141 106.139 50.7228 106.127 50.9336C106.126 51.1217 106.074 51.3059 105.976 51.4667ZM109.037 48.2639H107.321V49.7811H108.863V50.1136H107.321V51.6551H109.037V51.9876H106.913V47.927H109.037V48.2639ZM97.9984 49.1128C98.0054 48.999 97.9883 48.885 97.9482 48.7782C97.908 48.6715 97.8458 48.5744 97.7655 48.4933C97.6102 48.3456 97.3657 48.2717 97.0321 48.2717H96.2178V49.9628H97.0377C97.3557 49.9628 97.5954 49.8853 97.7566 49.7301C97.8375 49.6496 97.9008 49.5531 97.9425 49.4469C97.9841 49.3406 98.0032 49.2269 97.9984 49.1128ZM90.8293 48.2817H90.0083V49.9207H90.8293C91.4654 49.9207 91.7834 49.6496 91.7834 49.1073C91.7916 48.9943 91.7756 48.8809 91.7364 48.7746C91.6972 48.6684 91.6357 48.5717 91.556 48.4911C91.4051 48.3515 91.1629 48.2817 90.8293 48.2817ZM78.772 48.2817H77.9743V51.6706H78.772C79.3378 51.6706 79.7693 51.5229 80.0667 51.2273C80.364 50.9318 80.5119 50.5181 80.5104 49.9861C80.5104 49.452 80.3625 49.0345 80.0667 48.7338C79.7708 48.4331 79.3393 48.2787 78.772 48.2706V48.2817ZM77.6015 38.0439C77.6861 37.9561 77.7514 37.8516 77.7931 37.7371C77.8347 37.6225 77.8519 37.5005 77.8434 37.379C77.8496 37.2599 77.8307 37.1408 77.7879 37.0295C77.7451 36.9182 77.6793 36.8171 77.5948 36.7329C77.4292 36.577 77.1895 36.4987 76.8759 36.4979H75.7033V38.2711H76.8726C77.1966 38.2652 77.4395 38.1857 77.6015 38.0328V38.0439ZM68.0881 37.0786L67.1817 39.8315H69.0067L68.0881 37.0786ZM63.2066 49.1239C63.2135 49.0102 63.1965 48.8963 63.1565 48.7896C63.1166 48.6828 63.0546 48.5857 62.9747 48.5044C62.8194 48.3592 62.5742 48.2828 62.2414 48.2828H61.426V49.9739H62.2469C62.565 49.9739 62.8046 49.8964 62.9658 49.7412C63.0488 49.6597 63.1136 49.5616 63.1559 49.4533C63.1982 49.345 63.217 49.2289 63.211 49.1128L63.2066 49.1239ZM51.5864 48.4667C51.3366 48.3301 51.0563 48.2584 50.7715 48.2584C50.4867 48.2584 50.2064 48.3301 49.9566 48.4667C49.7136 48.6087 49.5159 48.8166 49.3864 49.0663C49.2417 49.3462 49.1696 49.6579 49.1767 49.9728C49.1699 50.2888 49.242 50.6015 49.3864 50.8827C49.5155 51.1332 49.7133 51.3419 49.9566 51.4844C50.2062 51.6218 50.4865 51.6938 50.7715 51.6938C51.0565 51.6938 51.3368 51.6218 51.5864 51.4844C51.8297 51.3419 52.0275 51.1332 52.1566 50.8827C52.301 50.6015 52.3731 50.2888 52.3663 49.9728C52.3734 49.6579 52.3013 49.3462 52.1566 49.0663C52.03 48.8131 51.8338 48.6013 51.5908 48.4557L51.5864 48.4667ZM77.5948 36.7229C77.4292 36.567 77.1895 36.4887 76.8759 36.4879H75.7033V38.2611H76.8726C77.1943 38.2611 77.4362 38.1846 77.5982 38.0317C77.6828 37.9439 77.7481 37.8394 77.7897 37.7249C77.8314 37.6103 77.8485 37.4883 77.84 37.3668C77.8464 37.2483 77.8279 37.1298 77.7857 37.0189C77.7434 36.908 77.6784 36.8072 77.5948 36.7229ZM68.0881 37.0676L67.1817 39.8204H69.0067L68.0881 37.0676ZM52.1611 49.0574C52.0316 48.8077 51.8338 48.5999 51.5908 48.4579C51.341 48.3212 51.0608 48.2496 50.7759 48.2496C50.4911 48.2496 50.2109 48.3212 49.9611 48.4579C49.718 48.5999 49.5203 48.8077 49.3908 49.0574C49.2461 49.3373 49.174 49.649 49.1811 49.964C49.1743 50.2799 49.2464 50.5926 49.3908 50.8738C49.5199 51.1243 49.7177 51.333 49.9611 51.4756C50.2106 51.6129 50.491 51.685 50.7759 51.685C51.0609 51.685 51.3412 51.6129 51.5908 51.4756C51.8342 51.333 52.0319 51.1243 52.1611 50.8738C52.3055 50.5926 52.3775 50.2799 52.3707 49.964C52.3778 49.649 52.3057 49.3373 52.1611 49.0574ZM62.9792 48.4956C62.8238 48.3504 62.5786 48.2739 62.2458 48.2739H61.4304V49.9651H62.2514C62.5694 49.9651 62.809 49.8875 62.9703 49.7323C63.0516 49.6512 63.1151 49.554 63.1565 49.4469C63.198 49.3399 63.2166 49.2253 63.211 49.1106C63.2177 48.9973 63.2004 48.8838 63.1605 48.7775C63.1206 48.6711 63.0588 48.5744 62.9792 48.4933V48.4956ZM80.0645 48.7227C79.7686 48.422 79.337 48.2721 78.7697 48.2728H77.972V51.6618H78.7697C79.3356 51.6618 79.7671 51.514 80.0645 51.2185C80.3618 50.9229 80.5097 50.5092 80.5082 49.9773C80.5104 49.4379 80.3633 49.0205 80.0667 48.725L80.0645 48.7227ZM91.5538 48.4878C91.4058 48.3482 91.1636 48.2783 90.8271 48.2783H90.0061V49.9174H90.8271C91.4631 49.9174 91.7812 49.6463 91.7812 49.104C91.79 48.9908 91.7745 48.8771 91.7357 48.7704C91.6968 48.6637 91.6356 48.5666 91.556 48.4856L91.5538 48.4878ZM97.7666 48.4956C97.6113 48.3478 97.3668 48.2739 97.0332 48.2739H96.2189V49.9651H97.0388C97.3568 49.9651 97.5965 49.8875 97.7577 49.7323C97.8392 49.6513 97.9028 49.5541 97.9445 49.447C97.9861 49.34 98.0049 49.2254 97.9996 49.1106C98.0061 48.9971 97.9886 48.8834 97.9483 48.7771C97.908 48.6707 97.8457 48.5741 97.7655 48.4933L97.7666 48.4956ZM97.7666 48.4956C97.6113 48.3478 97.3668 48.2739 97.0332 48.2739H96.2189V49.9651H97.0388C97.3568 49.9651 97.5965 49.8875 97.7577 49.7323C97.8392 49.6513 97.9028 49.5541 97.9445 49.447C97.9861 49.34 98.0049 49.2254 97.9996 49.1106C98.0061 48.9971 97.9886 48.8834 97.9483 48.7771C97.908 48.6707 97.8457 48.5741 97.7655 48.4933L97.7666 48.4956ZM91.5538 48.4878C91.4058 48.3482 91.1636 48.2783 90.8271 48.2783H90.0061V49.9174H90.8271C91.4631 49.9174 91.7812 49.6463 91.7812 49.104C91.79 48.9908 91.7745 48.8771 91.7357 48.7704C91.6968 48.6637 91.6356 48.5666 91.556 48.4856L91.5538 48.4878ZM80.0667 48.725C79.7708 48.4243 79.3393 48.2743 78.772 48.275H77.9743V51.664H78.772C79.3378 51.664 79.7693 51.5162 80.0667 51.2207C80.364 50.9252 80.5119 50.5114 80.5104 49.9795C80.5112 49.4387 80.3633 49.0205 80.0667 48.725ZM77.5948 36.7229C77.4292 36.567 77.1895 36.4887 76.8759 36.4879H75.7033V38.2611H76.8726C77.1943 38.2611 77.4362 38.1846 77.5982 38.0317C77.6828 37.9439 77.7481 37.8394 77.7897 37.7249C77.8314 37.6103 77.8485 37.4883 77.84 37.3668C77.8464 37.2483 77.8279 37.1298 77.7857 37.0189C77.7434 36.908 77.6784 36.8072 77.5948 36.7229ZM68.0881 37.0676L67.1817 39.8204H69.0067L68.0881 37.0676ZM62.9792 48.4933C62.8238 48.3482 62.5786 48.2717 62.2458 48.2717H61.4304V49.9628H62.2514C62.5694 49.9628 62.809 49.8853 62.9703 49.7301C63.0516 49.649 63.1151 49.5518 63.1565 49.4447C63.198 49.3376 63.2166 49.2231 63.211 49.1084C63.2174 48.9954 63.2 48.8823 63.16 48.7764C63.1201 48.6705 63.0585 48.5741 62.9792 48.4933ZM52.1611 49.0574C52.0316 48.8077 51.8338 48.5999 51.5908 48.4579C51.341 48.3212 51.0608 48.2496 50.7759 48.2496C50.4911 48.2496 50.2109 48.3212 49.9611 48.4579C49.718 48.5999 49.5203 48.8077 49.3908 49.0574C49.2461 49.3373 49.174 49.649 49.1811 49.964C49.1743 50.2799 49.2464 50.5926 49.3908 50.8738C49.5199 51.1243 49.7177 51.333 49.9611 51.4756C50.2106 51.6129 50.491 51.685 50.7759 51.685C51.0609 51.685 51.3412 51.6129 51.5908 51.4756C51.8342 51.333 52.0319 51.1243 52.1611 50.8738C52.3055 50.5926 52.3775 50.2799 52.3707 49.964C52.3778 49.649 52.3057 49.3373 52.1611 49.0574ZM77.5948 36.7229C77.4292 36.567 77.1895 36.4887 76.8759 36.4879H75.7033V38.2611H76.8726C77.1943 38.2611 77.4362 38.1846 77.5982 38.0317C77.6828 37.9439 77.7481 37.8394 77.7897 37.7249C77.8314 37.6103 77.8485 37.4883 77.84 37.3668C77.8464 37.2483 77.8279 37.1298 77.7857 37.0189C77.7434 36.908 77.6784 36.8072 77.5948 36.7229ZM68.0881 37.0676L67.1817 39.8204H69.0067L68.0881 37.0676ZM52.1611 49.0574C52.0316 48.8077 51.8338 48.5999 51.5908 48.4579C51.341 48.3212 51.0608 48.2496 50.7759 48.2496C50.4911 48.2496 50.2109 48.3212 49.9611 48.4579C49.718 48.5999 49.5203 48.8077 49.3908 49.0574C49.2461 49.3373 49.174 49.649 49.1811 49.964C49.1743 50.2799 49.2464 50.5926 49.3908 50.8738C49.5199 51.1243 49.7177 51.333 49.9611 51.4756C50.2106 51.6129 50.491 51.685 50.7759 51.685C51.0609 51.685 51.3412 51.6129 51.5908 51.4756C51.8342 51.333 52.0319 51.1243 52.1611 50.8738C52.3055 50.5926 52.3775 50.2799 52.3707 49.964C52.3778 49.649 52.3057 49.3373 52.1611 49.0574ZM62.9792 48.4956C62.8238 48.3504 62.5786 48.2739 62.2458 48.2739H61.4304V49.9651H62.2514C62.5694 49.9651 62.809 49.8875 62.9703 49.7323C63.0516 49.6512 63.1151 49.554 63.1565 49.4469C63.198 49.3399 63.2166 49.2253 63.211 49.1106C63.2177 48.9973 63.2004 48.8838 63.1605 48.7775C63.1206 48.6711 63.0588 48.5744 62.9792 48.4933V48.4956ZM80.0645 48.7227C79.7686 48.422 79.337 48.2721 78.7697 48.2728H77.972V51.6618H78.7697C79.3356 51.6618 79.7671 51.514 80.0645 51.2185C80.3618 50.9229 80.5097 50.5092 80.5082 49.9773C80.5104 49.4379 80.3633 49.0205 80.0667 48.725L80.0645 48.7227ZM91.5538 48.4878C91.4058 48.3482 91.1636 48.2783 90.8271 48.2783H90.0061V49.9174H90.8271C91.4631 49.9174 91.7812 49.6463 91.7812 49.104C91.79 48.9908 91.7745 48.8771 91.7357 48.7704C91.6968 48.6637 91.6356 48.5666 91.556 48.4856L91.5538 48.4878ZM97.7666 48.4956C97.6113 48.3478 97.3668 48.2739 97.0332 48.2739H96.2189V49.9651H97.0388C97.3568 49.9651 97.5965 49.8875 97.7577 49.7323C97.8392 49.6513 97.9028 49.5541 97.9445 49.447C97.9861 49.34 98.0049 49.2254 97.9996 49.1106C98.0061 48.9971 97.9886 48.8834 97.9483 48.7771C97.908 48.6707 97.8457 48.5741 97.7655 48.4933L97.7666 48.4956ZM97.7666 48.4956C97.6113 48.3478 97.3668 48.2739 97.0332 48.2739H96.2189V49.9651H97.0388C97.3568 49.9651 97.5965 49.8875 97.7577 49.7323C97.8392 49.6513 97.9028 49.5541 97.9445 49.447C97.9861 49.34 98.0049 49.2254 97.9996 49.1106C98.0061 48.9971 97.9886 48.8834 97.9483 48.7771C97.908 48.6707 97.8457 48.5741 97.7655 48.4933L97.7666 48.4956ZM91.5538 48.4878C91.4058 48.3482 91.1636 48.2783 90.8271 48.2783H90.0061V49.9174H90.8271C91.4631 49.9174 91.7812 49.6463 91.7812 49.104C91.79 48.9908 91.7745 48.8771 91.7357 48.7704C91.6968 48.6637 91.6356 48.5666 91.556 48.4856L91.5538 48.4878ZM80.0667 48.725C79.7708 48.4243 79.3393 48.2743 78.772 48.275H77.9743V51.664H78.772C79.3378 51.664 79.7693 51.5162 80.0667 51.2207C80.364 50.9252 80.5119 50.5114 80.5104 49.9795C80.5112 49.4387 80.3633 49.0205 80.0667 48.725ZM77.5948 36.7229C77.4292 36.567 77.1895 36.4887 76.8759 36.4879H75.7033V38.2611H76.8726C77.1943 38.2611 77.4362 38.1846 77.5982 38.0317C77.6828 37.9439 77.7481 37.8394 77.7897 37.7249C77.8314 37.6103 77.8485 37.4883 77.84 37.3668C77.8464 37.2483 77.8279 37.1298 77.7857 37.0189C77.7434 36.908 77.6784 36.8072 77.5948 36.7229ZM68.0881 37.0676L67.1817 39.8204H69.0067L68.0881 37.0676ZM62.9792 48.4933C62.8238 48.3482 62.5786 48.2717 62.2458 48.2717H61.4304V49.9628H62.2514C62.5694 49.9628 62.809 49.8853 62.9703 49.7301C63.0516 49.649 63.1151 49.5518 63.1565 49.4447C63.198 49.3376 63.2166 49.2231 63.211 49.1084C63.2174 48.9954 63.2 48.8823 63.16 48.7764C63.1201 48.6705 63.0585 48.5741 62.9792 48.4933ZM52.1611 49.0574C52.0316 48.8077 51.8338 48.5999 51.5908 48.4579C51.341 48.3212 51.0608 48.2496 50.7759 48.2496C50.4911 48.2496 50.2109 48.3212 49.9611 48.4579C49.718 48.5999 49.5203 48.8077 49.3908 49.0574C49.2461 49.3373 49.174 49.649 49.1811 49.964C49.1743 50.2799 49.2464 50.5926 49.3908 50.8738C49.5199 51.1243 49.7177 51.333 49.9611 51.4756C50.2106 51.6129 50.491 51.685 50.7759 51.685C51.0609 51.685 51.3412 51.6129 51.5908 51.4756C51.8342 51.333 52.0319 51.1243 52.1611 50.8738C52.3055 50.5926 52.3775 50.2799 52.3707 49.964C52.3778 49.649 52.3057 49.3373 52.1611 49.0574ZM77.5948 36.7229C77.4292 36.567 77.1895 36.4887 76.8759 36.4879H75.7033V38.2611H76.8726C77.1943 38.2611 77.4362 38.1846 77.5982 38.0317C77.6828 37.9439 77.7481 37.8394 77.7897 37.7249C77.8314 37.6103 77.8485 37.4883 77.84 37.3668C77.8464 37.2483 77.8279 37.1298 77.7857 37.0189C77.7434 36.908 77.6784 36.8072 77.5948 36.7229ZM68.0881 37.0676L67.1817 39.8204H69.0067L68.0881 37.0676ZM52.1611 49.0574C52.0316 48.8077 51.8338 48.5999 51.5908 48.4579C51.341 48.3212 51.0608 48.2496 50.7759 48.2496C50.4911 48.2496 50.2109 48.3212 49.9611 48.4579C49.718 48.5999 49.5203 48.8077 49.3908 49.0574C49.2461 49.3373 49.174 49.649 49.1811 49.964C49.1743 50.2799 49.2464 50.5926 49.3908 50.8738C49.5199 51.1243 49.7177 51.333 49.9611 51.4756C50.2106 51.6129 50.491 51.685 50.7759 51.685C51.0609 51.685 51.3412 51.6129 51.5908 51.4756C51.8342 51.333 52.0319 51.1243 52.1611 50.8738C52.3055 50.5926 52.3775 50.2799 52.3707 49.964C52.3778 49.649 52.3057 49.3373 52.1611 49.0574ZM62.9792 48.4956C62.8238 48.3504 62.5786 48.2739 62.2458 48.2739H61.4304V49.9651H62.2514C62.5694 49.9651 62.809 49.8875 62.9703 49.7323C63.0516 49.6512 63.1151 49.554 63.1565 49.4469C63.198 49.3399 63.2166 49.2253 63.211 49.1106C63.2177 48.9973 63.2004 48.8838 63.1605 48.7775C63.1206 48.6711 63.0588 48.5744 62.9792 48.4933V48.4956ZM80.0645 48.7227C79.7686 48.422 79.337 48.2721 78.7697 48.2728H77.972V51.6618H78.7697C79.3356 51.6618 79.7671 51.514 80.0645 51.2185C80.3618 50.9229 80.5097 50.5092 80.5082 49.9773C80.5104 49.4379 80.3633 49.0205 80.0667 48.725L80.0645 48.7227ZM91.5538 48.4878C91.4058 48.3482 91.1636 48.2783 90.8271 48.2783H90.0061V49.9174H90.8271C91.4631 49.9174 91.7812 49.6463 91.7812 49.104C91.79 48.9908 91.7745 48.8771 91.7357 48.7704C91.6968 48.6637 91.6356 48.5666 91.556 48.4856L91.5538 48.4878ZM91.5538 48.4878C91.4058 48.3482 91.1636 48.2783 90.8271 48.2783H90.0061V49.9174H90.8271C91.4631 49.9174 91.7812 49.6463 91.7812 49.104C91.79 48.9908 91.7745 48.8771 91.7357 48.7704C91.6968 48.6637 91.6356 48.5666 91.556 48.4856L91.5538 48.4878ZM80.0667 48.725C79.7708 48.4243 79.3393 48.2743 78.772 48.275H77.9743V51.664H78.772C79.3378 51.664 79.7693 51.5162 80.0667 51.2207C80.364 50.9252 80.5119 50.5114 80.5104 49.9795C80.5112 49.4387 80.3633 49.0205 80.0667 48.725ZM77.5948 36.7229C77.4292 36.567 77.1895 36.4887 76.8759 36.4879H75.7033V38.2611H76.8726C77.1943 38.2611 77.4362 38.1846 77.5982 38.0317C77.6828 37.9439 77.7481 37.8394 77.7897 37.7249C77.8314 37.6103 77.8485 37.4883 77.84 37.3668C77.8464 37.2483 77.8279 37.1298 77.7857 37.0189C77.7434 36.908 77.6784 36.8072 77.5948 36.7229ZM68.0881 37.0676L67.1817 39.8204H69.0067L68.0881 37.0676ZM62.9792 48.4933C62.8238 48.3482 62.5786 48.2717 62.2458 48.2717H61.4304V49.9628H62.2514C62.5694 49.9628 62.809 49.8853 62.9703 49.7301C63.0516 49.649 63.1151 49.5518 63.1565 49.4447C63.198 49.3376 63.2166 49.2231 63.211 49.1084C63.2174 48.9954 63.2 48.8823 63.16 48.7764C63.1201 48.6705 63.0585 48.5741 62.9792 48.4933ZM52.1611 49.0574C52.0316 48.8077 51.8338 48.5999 51.5908 48.4579C51.341 48.3212 51.0608 48.2496 50.7759 48.2496C50.4911 48.2496 50.2109 48.3212 49.9611 48.4579C49.718 48.5999 49.5203 48.8077 49.3908 49.0574C49.2461 49.3373 49.174 49.649 49.1811 49.964C49.1743 50.2799 49.2464 50.5926 49.3908 50.8738C49.5199 51.1243 49.7177 51.333 49.9611 51.4756C50.2106 51.6129 50.491 51.685 50.7759 51.685C51.0609 51.685 51.3412 51.6129 51.5908 51.4756C51.8342 51.333 52.0319 51.1243 52.1611 50.8738C52.3055 50.5926 52.3775 50.2799 52.3707 49.964C52.3778 49.649 52.3057 49.3373 52.1611 49.0574ZM77.5948 36.7229C77.4292 36.567 77.1895 36.4887 76.8759 36.4879H75.7033V38.2611H76.8726C77.1943 38.2611 77.4362 38.1846 77.5982 38.0317C77.6828 37.9439 77.7481 37.8394 77.7897 37.7249C77.8314 37.6103 77.8485 37.4883 77.84 37.3668C77.8464 37.2483 77.8279 37.1298 77.7857 37.0189C77.7434 36.908 77.6784 36.8072 77.5948 36.7229ZM68.0881 37.0676L67.1817 39.8204H69.0067L68.0881 37.0676ZM52.1611 49.0574C52.0316 48.8077 51.8338 48.5999 51.5908 48.4579C51.341 48.3212 51.0608 48.2496 50.7759 48.2496C50.4911 48.2496 50.2109 48.3212 49.9611 48.4579C49.718 48.5999 49.5203 48.8077 49.3908 49.0574C49.2461 49.3373 49.174 49.649 49.1811 49.964C49.1743 50.2799 49.2464 50.5926 49.3908 50.8738C49.5199 51.1243 49.7177 51.333 49.9611 51.4756C50.2106 51.6129 50.491 51.685 50.7759 51.685C51.0609 51.685 51.3412 51.6129 51.5908 51.4756C51.8342 51.333 52.0319 51.1243 52.1611 50.8738C52.3055 50.5926 52.3775 50.2799 52.3707 49.964C52.3778 49.649 52.3057 49.3373 52.1611 49.0574ZM62.9792 48.4956C62.8238 48.3504 62.5786 48.2739 62.2458 48.2739H61.4304V49.9651H62.2514C62.5694 49.9651 62.809 49.8875 62.9703 49.7323C63.0516 49.6512 63.1151 49.554 63.1565 49.4469C63.198 49.3399 63.2166 49.2253 63.211 49.1106C63.2177 48.9973 63.2004 48.8838 63.1605 48.7775C63.1206 48.6711 63.0588 48.5744 62.9792 48.4933V48.4956ZM80.0645 48.7227C79.7686 48.422 79.337 48.2721 78.7697 48.2728H77.972V51.6618H78.7697C79.3356 51.6618 79.7671 51.514 80.0645 51.2185C80.3618 50.9229 80.5097 50.5092 80.5082 49.9773C80.5104 49.4379 80.3633 49.0205 80.0667 48.725L80.0645 48.7227ZM80.0645 48.7227C79.7686 48.422 79.337 48.2721 78.7697 48.2728H77.972V51.6618H78.7697C79.3356 51.6618 79.7671 51.514 80.0645 51.2185C80.3618 50.9229 80.5097 50.5092 80.5082 49.9773C80.5104 49.4379 80.3633 49.0205 80.0667 48.725L80.0645 48.7227ZM77.5948 36.7229C77.4292 36.567 77.1895 36.4887 76.8759 36.4879H75.7033V38.2611H76.8726C77.1943 38.2611 77.4362 38.1846 77.5982 38.0317C77.6828 37.9439 77.7481 37.8394 77.7897 37.7249C77.8314 37.6103 77.8485 37.4883 77.84 37.3668C77.8464 37.2483 77.8279 37.1298 77.7857 37.0189C77.7434 36.908 77.6784 36.8072 77.5948 36.7229ZM68.0881 37.0676L67.1817 39.8204H69.0067L68.0881 37.0676ZM62.9792 48.4933C62.8238 48.3482 62.5786 48.2717 62.2458 48.2717H61.4304V49.9628H62.2514C62.5694 49.9628 62.809 49.8853 62.9703 49.7301C63.0516 49.649 63.1151 49.5518 63.1565 49.4447C63.198 49.3376 63.2166 49.2231 63.211 49.1084C63.2174 48.9954 63.2 48.8823 63.16 48.7764C63.1201 48.6705 63.0585 48.5741 62.9792 48.4933ZM52.1611 49.0574C52.0316 48.8077 51.8338 48.5999 51.5908 48.4579C51.341 48.3212 51.0608 48.2496 50.7759 48.2496C50.4911 48.2496 50.2109 48.3212 49.9611 48.4579C49.718 48.5999 49.5203 48.8077 49.3908 49.0574C49.2461 49.3373 49.174 49.649 49.1811 49.964C49.1743 50.2799 49.2464 50.5926 49.3908 50.8738C49.5199 51.1243 49.7177 51.333 49.9611 51.4756C50.2106 51.6129 50.491 51.685 50.7759 51.685C51.0609 51.685 51.3412 51.6129 51.5908 51.4756C51.8342 51.333 52.0319 51.1243 52.1611 50.8738C52.3055 50.5926 52.3775 50.2799 52.3707 49.964C52.3778 49.649 52.3057 49.3373 52.1611 49.0574ZM77.5948 36.7229C77.4292 36.567 77.1895 36.4887 76.8759 36.4879H75.7033V38.2611H76.8726C77.1943 38.2611 77.4362 38.1846 77.5982 38.0317C77.6828 37.9439 77.7481 37.8394 77.7897 37.7249C77.8314 37.6103 77.8485 37.4883 77.84 37.3668C77.8464 37.2483 77.8279 37.1298 77.7857 37.0189C77.7434 36.908 77.6784 36.8072 77.5948 36.7229ZM68.0881 37.0676L67.1817 39.8204H69.0067L68.0881 37.0676ZM52.1611 49.0574C52.0316 48.8077 51.8338 48.5999 51.5908 48.4579C51.341 48.3212 51.0608 48.2496 50.7759 48.2496C50.4911 48.2496 50.2109 48.3212 49.9611 48.4579C49.718 48.5999 49.5203 48.8077 49.3908 49.0574C49.2461 49.3373 49.174 49.649 49.1811 49.964C49.1743 50.2799 49.2464 50.5926 49.3908 50.8738C49.5199 51.1243 49.7177 51.333 49.9611 51.4756C50.2106 51.6129 50.491 51.685 50.7759 51.685C51.0609 51.685 51.3412 51.6129 51.5908 51.4756C51.8342 51.333 52.0319 51.1243 52.1611 50.8738C52.3055 50.5926 52.3775 50.2799 52.3707 49.964C52.3778 49.649 52.3057 49.3373 52.1611 49.0574ZM62.9792 48.4956C62.8238 48.3504 62.5786 48.2739 62.2458 48.2739H61.4304V49.9651H62.2514C62.5694 49.9651 62.809 49.8875 62.9703 49.7323C63.0516 49.6512 63.1151 49.554 63.1565 49.4469C63.198 49.3399 63.2166 49.2253 63.211 49.1106C63.2177 48.9973 63.2004 48.8838 63.1605 48.7775C63.1206 48.6711 63.0588 48.5744 62.9792 48.4933V48.4956ZM77.5948 36.7229C77.4292 36.567 77.1895 36.4887 76.8759 36.4879H75.7033V38.2611H76.8726C77.1943 38.2611 77.4362 38.1846 77.5982 38.0317C77.6828 37.9439 77.7481 37.8394 77.7897 37.7249C77.8314 37.6103 77.8485 37.4883 77.84 37.3668C77.8464 37.2483 77.8279 37.1298 77.7857 37.0189C77.7434 36.908 77.6784 36.8072 77.5948 36.7229ZM68.0881 37.0676L67.1817 39.8204H69.0067L68.0881 37.0676ZM62.9792 48.4933C62.8238 48.3482 62.5786 48.2717 62.2458 48.2717H61.4304V49.9628H62.2514C62.5694 49.9628 62.809 49.8853 62.9703 49.7301C63.0516 49.649 63.1151 49.5518 63.1565 49.4447C63.198 49.3376 63.2166 49.2231 63.211 49.1084C63.2174 48.9954 63.2 48.8823 63.16 48.7764C63.1201 48.6705 63.0585 48.5741 62.9792 48.4933ZM52.1611 49.0574C52.0316 48.8077 51.8338 48.5999 51.5908 48.4579C51.341 48.3212 51.0608 48.2496 50.7759 48.2496C50.4911 48.2496 50.2109 48.3212 49.9611 48.4579C49.718 48.5999 49.5203 48.8077 49.3908 49.0574C49.2461 49.3373 49.174 49.649 49.1811 49.964C49.1743 50.2799 49.2464 50.5926 49.3908 50.8738C49.5199 51.1243 49.7177 51.333 49.9611 51.4756C50.2106 51.6129 50.491 51.685 50.7759 51.685C51.0609 51.685 51.3412 51.6129 51.5908 51.4756C51.8342 51.333 52.0319 51.1243 52.1611 50.8738C52.3055 50.5926 52.3775 50.2799 52.3707 49.964C52.3778 49.649 52.3057 49.3373 52.1611 49.0574ZM77.5948 36.7229C77.4292 36.567 77.1895 36.4887 76.8759 36.4879H75.7033V38.2611H76.8726C77.1943 38.2611 77.4362 38.1846 77.5982 38.0317C77.6828 37.9439 77.7481 37.8394 77.7897 37.7249C77.8314 37.6103 77.8485 37.4883 77.84 37.3668C77.8464 37.2483 77.8279 37.1298 77.7857 37.0189C77.7434 36.908 77.6784 36.8072 77.5948 36.7229ZM68.0881 37.0676L67.1817 39.8204H69.0067L68.0881 37.0676ZM52.1611 49.0574C52.0316 48.8077 51.8338 48.5999 51.5908 48.4579C51.341 48.3212 51.0608 48.2496 50.7759 48.2496C50.4911 48.2496 50.2109 48.3212 49.9611 48.4579C49.718 48.5999 49.5203 48.8077 49.3908 49.0574C49.2461 49.3373 49.174 49.649 49.1811 49.964C49.1743 50.2799 49.2464 50.5926 49.3908 50.8738C49.5199 51.1243 49.7177 51.333 49.9611 51.4756C50.2106 51.6129 50.491 51.685 50.7759 51.685C51.0609 51.685 51.3412 51.6129 51.5908 51.4756C51.8342 51.333 52.0319 51.1243 52.1611 50.8738C52.3055 50.5926 52.3775 50.2799 52.3707 49.964C52.3778 49.649 52.3057 49.3373 52.1611 49.0574ZM62.9792 48.4956C62.8238 48.3504 62.5786 48.2739 62.2458 48.2739H61.4304V49.9651H62.2514C62.5694 49.9651 62.809 49.8875 62.9703 49.7323C63.0516 49.6512 63.1151 49.554 63.1565 49.4469C63.198 49.3399 63.2166 49.2253 63.211 49.1106C63.2177 48.9973 63.2004 48.8838 63.1605 48.7775C63.1206 48.6711 63.0588 48.5744 62.9792 48.4933V48.4956ZM77.5948 36.7229C77.4292 36.567 77.1895 36.4887 76.8759 36.4879H75.7033V38.2611H76.8726C77.1943 38.2611 77.4362 38.1846 77.5982 38.0317C77.6828 37.9439 77.7481 37.8394 77.7897 37.7249C77.8314 37.6103 77.8485 37.4883 77.84 37.3668C77.8464 37.2483 77.8279 37.1298 77.7857 37.0189C77.7434 36.908 77.6784 36.8072 77.5948 36.7229ZM68.0881 37.0676L67.1817 39.8204H69.0067L68.0881 37.0676ZM62.9792 48.4933C62.8238 48.3482 62.5786 48.2717 62.2458 48.2717H61.4304V49.9628H62.2514C62.5694 49.9628 62.809 49.8853 62.9703 49.7301C63.0516 49.649 63.1151 49.5518 63.1565 49.4447C63.198 49.3376 63.2166 49.2231 63.211 49.1084C63.2174 48.9954 63.2 48.8823 63.16 48.7764C63.1201 48.6705 63.0585 48.5741 62.9792 48.4933ZM52.1611 49.0574C52.0316 48.8077 51.8338 48.5999 51.5908 48.4579C51.341 48.3212 51.0608 48.2496 50.7759 48.2496C50.4911 48.2496 50.2109 48.3212 49.9611 48.4579C49.718 48.5999 49.5203 48.8077 49.3908 49.0574C49.2461 49.3373 49.174 49.649 49.1811 49.964C49.1743 50.2799 49.2464 50.5926 49.3908 50.8738C49.5199 51.1243 49.7177 51.333 49.9611 51.4756C50.2106 51.6129 50.491 51.685 50.7759 51.685C51.0609 51.685 51.3412 51.6129 51.5908 51.4756C51.8342 51.333 52.0319 51.1243 52.1611 50.8738C52.3055 50.5926 52.3775 50.2799 52.3707 49.964C52.3778 49.649 52.3057 49.3373 52.1611 49.0574ZM77.5948 36.7229C77.4292 36.567 77.1895 36.4887 76.8759 36.4879H75.7033V38.2611H76.8726C77.1943 38.2611 77.4362 38.1846 77.5982 38.0317C77.6828 37.9439 77.7481 37.8394 77.7897 37.7249C77.8314 37.6103 77.8485 37.4883 77.84 37.3668C77.8464 37.2483 77.8279 37.1298 77.7857 37.0189C77.7434 36.908 77.6784 36.8072 77.5948 36.7229ZM68.0881 37.0676L67.1817 39.8204H69.0067L68.0881 37.0676ZM52.1611 49.0574C52.0316 48.8077 51.8338 48.5999 51.5908 48.4579C51.341 48.3212 51.0608 48.2496 50.7759 48.2496C50.4911 48.2496 50.2109 48.3212 49.9611 48.4579C49.718 48.5999 49.5203 48.8077 49.3908 49.0574C49.2461 49.3373 49.174 49.649 49.1811 49.964C49.1743 50.2799 49.2464 50.5926 49.3908 50.8738C49.5199 51.1243 49.7177 51.333 49.9611 51.4756C50.2106 51.6129 50.491 51.685 50.7759 51.685C51.0609 51.685 51.3412 51.6129 51.5908 51.4756C51.8342 51.333 52.0319 51.1243 52.1611 50.8738C52.3055 50.5926 52.3775 50.2799 52.3707 49.964C52.3778 49.649 52.3057 49.3373 52.1611 49.0574ZM62.9792 48.4956C62.8238 48.3504 62.5786 48.2739 62.2458 48.2739H61.4304V49.9651H62.2514C62.5694 49.9651 62.809 49.8875 62.9703 49.7323C63.0516 49.6512 63.1151 49.554 63.1565 49.4469C63.198 49.3399 63.2166 49.2253 63.211 49.1106C63.2177 48.9973 63.2004 48.8838 63.1605 48.7775C63.1206 48.6711 63.0588 48.5744 62.9792 48.4933V48.4956ZM77.5948 36.7229C77.4292 36.567 77.1895 36.4887 76.8759 36.4879H75.7033V38.2611H76.8726C77.1943 38.2611 77.4362 38.1846 77.5982 38.0317C77.6828 37.9439 77.7481 37.8394 77.7897 37.7249C77.8314 37.6103 77.8485 37.4883 77.84 37.3668C77.8464 37.2483 77.8279 37.1298 77.7857 37.0189C77.7434 36.908 77.6784 36.8072 77.5948 36.7229ZM68.0881 37.0676L67.1817 39.8204H69.0067L68.0881 37.0676ZM62.9792 48.4933C62.8238 48.3482 62.5786 48.2717 62.2458 48.2717H61.4304V49.9628H62.2514C62.5694 49.9628 62.809 49.8853 62.9703 49.7301C63.0516 49.649 63.1151 49.5518 63.1565 49.4447C63.198 49.3376 63.2166 49.2231 63.211 49.1084C63.2174 48.9954 63.2 48.8823 63.16 48.7764C63.1201 48.6705 63.0585 48.5741 62.9792 48.4933ZM52.1611 49.0574C52.0316 48.8077 51.8338 48.5999 51.5908 48.4579C51.341 48.3212 51.0608 48.2496 50.7759 48.2496C50.4911 48.2496 50.2109 48.3212 49.9611 48.4579C49.718 48.5999 49.5203 48.8077 49.3908 49.0574C49.2461 49.3373 49.174 49.649 49.1811 49.964C49.1743 50.2799 49.2464 50.5926 49.3908 50.8738C49.5199 51.1243 49.7177 51.333 49.9611 51.4756C50.2106 51.6129 50.491 51.685 50.7759 51.685C51.0609 51.685 51.3412 51.6129 51.5908 51.4756C51.8342 51.333 52.0319 51.1243 52.1611 50.8738C52.3055 50.5926 52.3775 50.2799 52.3707 49.964C52.3778 49.649 52.3057 49.3373 52.1611 49.0574ZM77.5948 36.7229C77.4292 36.567 77.1895 36.4887 76.8759 36.4879H75.7033V38.2611H76.8726C77.1943 38.2611 77.4362 38.1846 77.5982 38.0317C77.6828 37.9439 77.7481 37.8394 77.7897 37.7249C77.8314 37.6103 77.8485 37.4883 77.84 37.3668C77.8464 37.2483 77.8279 37.1298 77.7857 37.0189C77.7434 36.908 77.6784 36.8072 77.5948 36.7229ZM68.0881 37.0676L67.1817 39.8204H69.0067L68.0881 37.0676ZM52.1611 49.0574C52.0316 48.8077 51.8338 48.5999 51.5908 48.4579C51.341 48.3212 51.0608 48.2496 50.7759 48.2496C50.4911 48.2496 50.2109 48.3212 49.9611 48.4579C49.718 48.5999 49.5203 48.8077 49.3908 49.0574C49.2461 49.3373 49.174 49.649 49.1811 49.964C49.1743 50.2799 49.2464 50.5926 49.3908 50.8738C49.5199 51.1243 49.7177 51.333 49.9611 51.4756C50.2106 51.6129 50.491 51.685 50.7759 51.685C51.0609 51.685 51.3412 51.6129 51.5908 51.4756C51.8342 51.333 52.0319 51.1243 52.1611 50.8738C52.3055 50.5926 52.3775 50.2799 52.3707 49.964C52.3778 49.649 52.3057 49.3373 52.1611 49.0574ZM77.5948 36.7229C77.4292 36.567 77.1895 36.4887 76.8759 36.4879H75.7033V38.2611H76.8726C77.1943 38.2611 77.4362 38.1846 77.5982 38.0317C77.6828 37.9439 77.7481 37.8394 77.7897 37.7249C77.8314 37.6103 77.8485 37.4883 77.84 37.3668C77.8464 37.2483 77.8279 37.1298 77.7857 37.0189C77.7434 36.908 77.6784 36.8072 77.5948 36.7229ZM68.0881 37.0676L67.1817 39.8204H69.0067L68.0881 37.0676ZM52.1611 49.0574C52.0316 48.8077 51.8338 48.5999 51.5908 48.4579C51.341 48.3212 51.0608 48.2496 50.7759 48.2496C50.4911 48.2496 50.2109 48.3212 49.9611 48.4579C49.718 48.5999 49.5203 48.8077 49.3908 49.0574C49.2461 49.3373 49.174 49.649 49.1811 49.964C49.1743 50.2799 49.2464 50.5926 49.3908 50.8738C49.5199 51.1243 49.7177 51.333 49.9611 51.4756C50.2106 51.6129 50.491 51.685 50.7759 51.685C51.0609 51.685 51.3412 51.6129 51.5908 51.4756C51.8342 51.333 52.0319 51.1243 52.1611 50.8738C52.3055 50.5926 52.3775 50.2799 52.3707 49.964C52.3778 49.649 52.3057 49.3373 52.1611 49.0574ZM77.5948 36.7229C77.4292 36.567 77.1895 36.4887 76.8759 36.4879H75.7033V38.2611H76.8726C77.1943 38.2611 77.4362 38.1846 77.5982 38.0317C77.6828 37.9439 77.7481 37.8394 77.7897 37.7249C77.8314 37.6103 77.8485 37.4883 77.84 37.3668C77.8464 37.2483 77.8279 37.1298 77.7857 37.0189C77.7434 36.908 77.6784 36.8072 77.5948 36.7229ZM68.0881 37.0676L67.1817 39.8204H69.0067L68.0881 37.0676ZM77.5948 36.7229C77.4292 36.567 77.1895 36.4887 76.8759 36.4879H75.7033V38.2611H76.8726C77.1943 38.2611 77.4362 38.1846 77.5982 38.0317C77.6828 37.9439 77.7481 37.8394 77.7897 37.7249C77.8314 37.6103 77.8485 37.4883 77.84 37.3668C77.8464 37.2483 77.8279 37.1298 77.7857 37.0189C77.7434 36.908 77.6784 36.8072 77.5948 36.7229ZM68.0881 37.0676L67.1817 39.8204H69.0067L68.0881 37.0676ZM68.0881 37.0676L67.1817 39.8204H69.0067L68.0881 37.0676ZM68.0881 37.0676L67.1817 39.8204H69.0067L68.0881 37.0676Z" fill="#D63346"/>
<path d="M39.3982 9.1808C37.0555 8.64461 32.7094 7.18005 29.92 3.39025C29.3364 2.60235 28.5813 1.96299 27.7138 1.52247C26.8463 1.08196 25.8903 0.852298 24.9208 0.851562C23.5144 0.852652 22.1492 1.33553 21.0453 2.22242C18.9089 3.94379 14.9584 6.28466 8.26782 7.66419C7.15005 7.89078 6.11441 8.42411 5.27295 9.20647C4.4315 9.98883 3.81626 10.9904 3.49375 12.103C2.42128 15.7921 0.735005 23.1496 1.48522 30.9704C2.48095 41.3646 7.5261 49.064 16.0785 53.2321C17.4656 53.9069 19.0489 54.0354 20.5235 53.593L20.6242 53.5635C23.3744 52.7271 28.619 50.5094 33.5824 44.9497C34.4558 43.9688 35.2743 42.9387 36.0342 41.8644C36.5627 41.1194 37.0657 40.3495 37.5431 39.5548C40.7435 34.2397 42.8492 27.7984 43.8364 20.3055C44.0262 18.8618 44.1746 17.3787 44.2814 15.8563C44.3936 14.3317 43.9614 12.8171 43.0643 11.5908C42.1673 10.3644 40.8655 9.50872 39.3982 9.1808ZM42.6019 15.7349C42.4883 17.3024 42.3331 18.8259 42.1365 20.3055C41.1135 27.8435 38.9344 34.2553 35.6113 39.4611C35.0794 40.2917 34.5196 41.0928 33.9319 41.8644C33.4215 42.5319 32.8895 43.1762 32.336 43.7975C27.5909 49.1143 22.6037 51.1862 20.0512 51.9532C19.1222 52.227 18.1321 52.1967 17.2209 51.8664C17.0804 51.8162 16.9426 51.7582 16.8083 51.6929C8.81852 47.7972 4.10071 40.5751 3.16806 30.8091C2.44342 23.2746 4.07516 16.16 5.11181 12.5906C5.34769 11.7782 5.79687 11.0467 6.41098 10.4749C7.0251 9.90312 7.78087 9.51268 8.59688 9.34565C15.6148 7.89845 19.8058 5.40488 22.0854 3.56724C22.8918 2.91993 23.8886 2.5673 24.9157 2.566C25.6235 2.56667 26.3216 2.73437 26.955 3.05593C27.5884 3.37749 28.1399 3.84416 28.5662 4.41925C31.6796 8.64634 36.4553 10.2653 39.0231 10.8536C40.0978 11.0911 41.0519 11.716 41.7096 12.613C42.3672 13.51 42.6842 14.6188 42.6019 15.7349Z" fill="#D63346"/>
<path d="M56.6721 27.6662C56.6917 27.6466 56.7056 27.622 56.712 27.5951C56.7185 27.5682 56.7173 27.54 56.7087 27.5137C56.7001 27.4874 56.6843 27.464 56.6631 27.4461C56.642 27.4282 56.6163 27.4166 56.5889 27.4124L55.0002 27.1819C54.9766 27.1782 54.9542 27.1689 54.9349 27.1549C54.9156 27.1408 54.9 27.1223 54.8893 27.101L54.1792 25.6603C54.1667 25.6356 54.1476 25.6148 54.124 25.6003C54.1004 25.5858 54.0733 25.5781 54.0456 25.5781C54.0179 25.5781 53.9907 25.5858 53.9671 25.6003C53.9435 25.6148 53.9244 25.6356 53.9119 25.6603L53.2018 27.101C53.1911 27.1223 53.1755 27.1408 53.1562 27.1549C53.1369 27.1689 53.1145 27.1782 53.0909 27.1819L51.5022 27.4124C51.4748 27.4166 51.4491 27.4282 51.428 27.4461C51.4068 27.464 51.3911 27.4874 51.3824 27.5137C51.3738 27.54 51.3727 27.5682 51.3791 27.5951C51.3856 27.622 51.3994 27.6466 51.419 27.6662L52.5672 28.7833C52.5845 28.8002 52.5973 28.821 52.6046 28.844C52.612 28.867 52.6136 28.8914 52.6094 28.9151L52.3387 30.4955C52.3337 30.5228 52.3365 30.551 52.3468 30.5768C52.3572 30.6026 52.3746 30.6249 52.3971 30.6412C52.4196 30.6576 52.4463 30.6672 52.474 30.6691C52.5018 30.6709 52.5295 30.6649 52.5539 30.6517L53.9751 29.9059C53.9964 29.8944 54.0203 29.8885 54.0445 29.8885C54.0687 29.8885 54.0925 29.8944 54.1138 29.9059L55.535 30.6517C55.5594 30.6649 55.5871 30.6709 55.6149 30.6691C55.6426 30.6672 55.6693 30.6576 55.6918 30.6412C55.7143 30.6249 55.7317 30.6026 55.7421 30.5768C55.7524 30.551 55.7552 30.5228 55.7502 30.4955L55.4795 28.9151C55.4753 28.8914 55.4769 28.867 55.4843 28.844C55.4916 28.821 55.5044 28.8002 55.5217 28.7833L56.6721 27.6662Z" fill="#D63346"/>
<path d="M63.5896 27.6586C63.6096 27.6393 63.6237 27.6148 63.6305 27.5878C63.6372 27.5609 63.6363 27.5326 63.6277 27.5062C63.6192 27.4797 63.6034 27.4562 63.5821 27.4383C63.5609 27.4204 63.535 27.4088 63.5075 27.4048L61.9176 27.1743C61.894 27.1708 61.8715 27.1616 61.8522 27.1476C61.8328 27.1335 61.8172 27.1149 61.8067 27.0934L61.0956 25.6527C61.0832 25.628 61.0643 25.6071 61.0407 25.5926C61.0172 25.578 60.9901 25.5703 60.9624 25.5703C60.9348 25.5703 60.9076 25.578 60.8841 25.5926C60.8606 25.6071 60.8416 25.628 60.8293 25.6527L60.1181 27.0934C60.1076 27.1149 60.092 27.1335 60.0727 27.1476C60.0533 27.1616 60.0309 27.1708 60.0072 27.1743L58.4185 27.4048C58.391 27.4088 58.3651 27.4204 58.3438 27.4383C58.3226 27.4562 58.3068 27.4797 58.2982 27.5062C58.2897 27.5326 58.2887 27.5609 58.2955 27.5878C58.3022 27.6148 58.3164 27.6393 58.3364 27.6586L59.4847 28.7757C59.502 28.7926 59.515 28.8134 59.5225 28.8363C59.5301 28.8593 59.5319 28.8837 59.5279 28.9076L59.2561 30.4879C59.2514 30.5153 59.2545 30.5434 59.265 30.5691C59.2755 30.5949 59.293 30.6171 59.3155 30.6334C59.338 30.6497 59.3647 30.6593 59.3924 30.6612C59.4202 30.6631 59.4479 30.6572 59.4724 30.6442L60.897 29.9006C60.9181 29.8891 60.9417 29.8831 60.9658 29.8831C60.9898 29.8831 61.0134 29.8891 61.0345 29.9006L62.4502 30.6464C62.4747 30.6594 62.5024 30.6653 62.5302 30.6634C62.5579 30.6615 62.5846 30.6519 62.6071 30.6356C62.6296 30.6193 62.6471 30.5971 62.6577 30.5714C62.6682 30.5456 62.6712 30.5175 62.6665 30.4901L62.3947 28.9098C62.3907 28.886 62.3926 28.8615 62.4001 28.8385C62.4076 28.8156 62.4206 28.7948 62.438 28.7779L63.5896 27.6586Z" fill="#D63346"/>
<path d="M70.5075 27.6586C70.5275 27.6393 70.5417 27.6148 70.5484 27.5878C70.5552 27.5609 70.5542 27.5326 70.5457 27.5062C70.5371 27.4797 70.5213 27.4562 70.5 27.4383C70.4788 27.4204 70.4529 27.4088 70.4254 27.4048L68.8367 27.1743C68.813 27.1708 68.7905 27.1616 68.7712 27.1476C68.7519 27.1335 68.7363 27.1149 68.7257 27.0934L68.0146 25.6527C68.0023 25.628 67.9833 25.6071 67.9598 25.5926C67.9362 25.578 67.9091 25.5703 67.8815 25.5703C67.8538 25.5703 67.8267 25.578 67.8031 25.5926C67.7796 25.6071 67.7606 25.628 67.7483 25.6527L67.0383 27.0934C67.0275 27.1147 67.0119 27.1331 66.9926 27.1472C66.9733 27.1613 66.9509 27.1706 66.9274 27.1743L65.3342 27.4048C65.3068 27.409 65.2811 27.4207 65.26 27.4386C65.2388 27.4565 65.2231 27.4799 65.2145 27.5062C65.2059 27.5325 65.2047 27.5606 65.2111 27.5875C65.2176 27.6145 65.2314 27.6391 65.251 27.6586L66.4037 28.7757C66.4209 28.7926 66.4337 28.8135 66.4411 28.8364C66.4484 28.8594 66.4501 28.8838 66.4458 28.9076L66.174 30.4879C66.1693 30.5153 66.1724 30.5434 66.1829 30.5691C66.1934 30.5949 66.2109 30.6171 66.2334 30.6334C66.256 30.6497 66.2826 30.6593 66.3104 30.6612C66.3381 30.6631 66.3658 30.6572 66.3904 30.6442L67.8116 29.8983C67.8329 29.8869 67.8567 29.8809 67.8809 29.8809C67.9051 29.8809 67.9289 29.8869 67.9502 29.8983L69.3714 30.6442C69.3959 30.6574 69.4236 30.6634 69.4514 30.6615C69.4791 30.6597 69.5058 30.65 69.5283 30.6337C69.5508 30.6174 69.5682 30.595 69.5785 30.5692C69.5888 30.5434 69.5917 30.5152 69.5867 30.4879L69.3148 28.9076C69.3108 28.8837 69.3127 28.8593 69.3202 28.8363C69.3278 28.8134 69.3408 28.7926 69.3581 28.7757L70.5075 27.6586Z" fill="#D63346"/>
<path d="M77.4283 27.6662C77.4479 27.6466 77.4617 27.622 77.4681 27.5951C77.4746 27.5682 77.4734 27.54 77.4648 27.5137C77.4562 27.4874 77.4404 27.464 77.4193 27.4461C77.3982 27.4282 77.3725 27.4166 77.3451 27.4124L75.7564 27.1819C75.7328 27.1781 75.7104 27.1688 75.6912 27.1548C75.6719 27.1407 75.6562 27.1223 75.6454 27.101L74.9354 25.6603C74.9229 25.6356 74.9038 25.6148 74.8802 25.6003C74.8566 25.5858 74.8294 25.5781 74.8017 25.5781C74.774 25.5781 74.7468 25.5858 74.7232 25.6003C74.6996 25.6148 74.6805 25.6356 74.668 25.6603L73.958 27.101C73.9473 27.1223 73.9316 27.1408 73.9123 27.1549C73.893 27.1689 73.8707 27.1782 73.847 27.1819L72.2583 27.4124C72.2308 27.4163 72.2049 27.4279 72.1837 27.4459C72.1624 27.4638 72.1466 27.4873 72.1381 27.5137C72.1295 27.5401 72.1286 27.5684 72.1353 27.5954C72.142 27.6223 72.1562 27.6469 72.1762 27.6662L73.3234 28.7833C73.3407 28.8001 73.3537 28.8209 73.3613 28.8439C73.3688 28.8668 73.3706 28.8913 73.3666 28.9151L73.0948 30.4955C73.0898 30.5228 73.0927 30.551 73.103 30.5768C73.1133 30.6026 73.1307 30.6249 73.1532 30.6412C73.1757 30.6576 73.2024 30.6672 73.2301 30.6691C73.2579 30.6709 73.2856 30.6649 73.3101 30.6517L74.7313 29.9059C74.7526 29.8944 74.7764 29.8885 74.8006 29.8885C74.8248 29.8885 74.8486 29.8944 74.8699 29.9059L76.2911 30.6517C76.3156 30.6649 76.3433 30.6709 76.3711 30.6691C76.3988 30.6672 76.4255 30.6576 76.448 30.6412C76.4705 30.6249 76.4879 30.6026 76.4982 30.5768C76.5086 30.551 76.5114 30.5228 76.5064 30.4955L76.2357 28.9151C76.2314 28.8914 76.2331 28.867 76.2404 28.844C76.2478 28.821 76.2606 28.8002 76.2778 28.7833L77.4283 27.6662Z" fill="#D63346"/>
<path d="M84.3463 27.6586C84.3663 27.6393 84.3804 27.6148 84.3872 27.5878C84.3939 27.5609 84.393 27.5326 84.3844 27.5062C84.3759 27.4797 84.3601 27.4562 84.3388 27.4383C84.3176 27.4204 84.2917 27.4088 84.2642 27.4048L82.6755 27.1743C82.6518 27.1708 82.6293 27.1616 82.61 27.1476C82.5907 27.1335 82.575 27.1149 82.5645 27.0934L81.8533 25.6527C81.841 25.628 81.8221 25.6071 81.7985 25.5926C81.775 25.578 81.7479 25.5703 81.7202 25.5703C81.6925 25.5703 81.6654 25.578 81.6419 25.5926C81.6184 25.6071 81.5994 25.628 81.5871 25.6527L80.876 27.0934C80.8654 27.1149 80.8498 27.1335 80.8305 27.1476C80.8111 27.1616 80.7887 27.1708 80.765 27.1743L79.1763 27.4048C79.1488 27.4088 79.1229 27.4204 79.1016 27.4383C79.0804 27.4562 79.0646 27.4797 79.056 27.5062C79.0475 27.5326 79.0465 27.5609 79.0533 27.5878C79.06 27.6148 79.0742 27.6393 79.0942 27.6586L80.2414 28.7757C80.2587 28.7926 80.2717 28.8134 80.2792 28.8363C80.2868 28.8593 80.2886 28.8837 80.2846 28.9076L80.0128 30.4879C80.0081 30.5153 80.0112 30.5434 80.0217 30.5691C80.0322 30.5949 80.0497 30.6171 80.0722 30.6334C80.0947 30.6497 80.1214 30.6593 80.1491 30.6612C80.1769 30.6631 80.2046 30.6572 80.2291 30.6442L81.6503 29.8983C81.6715 29.8869 81.6951 29.8809 81.7191 29.8809C81.7431 29.8809 81.7668 29.8869 81.7879 29.8983L83.2091 30.6442C83.2336 30.6572 83.2613 30.6631 83.2891 30.6612C83.3168 30.6593 83.3435 30.6497 83.366 30.6334C83.3885 30.6171 83.4061 30.5949 83.4166 30.5691C83.4271 30.5434 83.4301 30.5153 83.4254 30.4879L83.1536 28.9076C83.1496 28.8837 83.1515 28.8593 83.159 28.8363C83.1666 28.8134 83.1795 28.7926 83.1969 28.7757L84.3463 27.6586Z" fill="#D63346"/>
<path d="M39.2304 12.9883C36.288 12.3286 31.0326 10.5465 27.5365 5.8909C27.3261 5.61301 27.0621 5.37981 26.76 5.20499C26.4579 5.03017 26.1238 4.91726 25.7773 4.87288C25.4307 4.82851 25.0788 4.85356 24.7422 4.94658C24.4055 5.0396 24.0909 5.1987 23.8168 5.41454C21.4454 7.2857 16.9294 9.98276 9.37136 11.5061C8.90089 11.5999 8.46494 11.8196 8.11043 12.1418C7.75592 12.4639 7.49624 12.8762 7.35928 13.3344C5.57767 19.3402 0.511453 41.1978 18.1126 49.6008C18.6921 49.8751 19.3529 49.9264 19.9681 49.7447C24.0524 48.5453 39.3869 42.3235 41.2924 15.7402C41.3366 15.1114 41.1528 14.4877 40.7743 13.9826C40.3959 13.4775 39.848 13.1247 39.2304 12.9883ZM17.2373 37.0528L9.59317 23.367L14.7196 20.5603L19.0378 28.4852L35.4316 17.649L36.9948 19.6692C35.4076 21.0606 18.2089 36.1943 17.2373 37.0528Z" fill="#D63346"/>
<path d="M92.332 44.4361V32.4219H97.4321L92.332 44.4361Z" fill="#D63346"/>
</g>
<defs>
<clipPath id="clip0_1539_42966">
<rect width="111.676" height="53.8485" fill="white"/>
</clipPath>
</defs>
</svg>
