<svg width="70" height="65" viewBox="0 0 70 65" fill="none" xmlns="http://www.w3.org/2000/svg">
<g clip-path="url(#clip0_1542_42974)">
<path fill-rule="evenodd" clip-rule="evenodd" d="M34.5975 0C21.6806 0 11.209 10.5001 11.209 23.4524C11.209 36.4048 21.6806 46.9055 34.5975 46.9055C47.5143 46.9055 57.9856 36.4051 57.9856 23.4524C57.9856 10.4998 47.5149 0 34.5975 0ZM34.5975 45.2397C22.5981 45.2397 12.8702 35.4853 12.8702 23.4524C12.8702 11.4195 22.5978 1.66603 34.5975 1.66603C46.5971 1.66603 56.3248 11.4201 56.3248 23.4524C56.3248 35.4847 46.5974 45.2397 34.5975 45.2397Z" fill="#D63346"/>
<path fill-rule="evenodd" clip-rule="evenodd" d="M34.598 2.90625C23.2826 2.90625 14.1113 12.1042 14.1113 23.4492C14.1113 34.7942 23.2841 43.9942 34.598 43.9942C45.9119 43.9942 55.0862 34.7963 55.0862 23.4492C55.0862 12.1022 45.9134 2.90625 34.598 2.90625ZM40.9237 31.672C39.7185 32.5835 38.1922 33.1306 36.3449 33.3134V37.1816H32.8526V33.2558C30.0086 32.89 27.7161 31.7259 25.9749 29.7635L28.116 26.8614C29.8076 28.7431 32.0942 29.7105 34.9758 29.7635C36.0862 29.7635 37.0512 29.5516 37.8706 29.1279C38.6901 28.7041 39.113 28.0682 39.1393 27.2203C39.1659 26.3718 38.8024 25.7488 38.0488 25.3512C37.2953 24.9536 36.1521 24.6753 34.6191 24.5163C29.3316 24.0129 26.6748 22.0515 26.6489 18.6322C26.6489 16.6436 27.475 15.1526 29.1272 14.1591C30.26 13.4771 31.5022 13.0287 32.8537 12.8141V9.72065H36.3449V12.7469C38.7109 13.0013 40.6995 13.8492 42.311 15.2907L40.0121 17.9942C38.6894 16.7751 36.9706 16.1656 34.8556 16.1656C33.5873 16.1391 32.5763 16.3313 31.8224 16.7419C31.0685 17.1526 30.6918 17.7425 30.6924 18.5116C30.7185 19.9161 32.1331 20.7511 34.936 21.0166C36.0464 21.1223 37.0048 21.2614 37.8112 21.434C38.6176 21.6065 39.4766 21.898 40.3881 22.3085C41.3005 22.7194 42.0011 23.3356 42.4901 24.1574C42.979 24.9791 43.2235 25.9867 43.2235 27.1801C43.1962 29.0346 42.4296 30.5319 40.9237 31.672Z" fill="#D63346"/>
<path fill-rule="evenodd" clip-rule="evenodd" d="M34.598 2.90625C23.2826 2.90625 14.1113 12.1042 14.1113 23.4492C14.1113 34.7942 23.2841 43.9942 34.598 43.9942C45.9119 43.9942 55.0862 34.7963 55.0862 23.4492C55.0862 12.1022 45.9134 2.90625 34.598 2.90625ZM34.598 42.3264C24.5865 42.3264 16.4708 34.1888 16.4708 24.1494C16.4708 14.1101 24.5865 5.97243 34.598 5.97243C44.6096 5.97243 52.7252 14.1104 52.7252 24.1494C52.7252 34.1885 44.6096 42.3264 34.598 42.3264Z" fill="#D63346"/>
<path fill-rule="evenodd" clip-rule="evenodd" d="M62.8613 21.5312L69.1867 51.5586L54.0002 64.3401L53.901 65.0034H35.5508L40.3543 49.5445L57.5178 39.4303L58.0888 46.1039L50.5889 53.1941L47.923 60.2339L51.8494 54.7695L60.3274 47.3793L58.8757 30.5772C58.8757 30.5772 58.2357 23.3232 62.8625 21.5312H62.8613Z" fill="#D63346"/>
<path fill-rule="evenodd" clip-rule="evenodd" d="M6.33606 21.5312L0.00976562 51.5586L15.1962 64.3401L15.2958 65.0034H33.646L28.8424 49.5448L11.6784 39.4303L11.1086 46.105L18.6082 53.1953L21.2744 60.2354L17.3476 54.7706L8.87084 47.3805L10.3228 30.5784C10.3228 30.5784 10.9625 23.3244 6.33606 21.5324V21.5312Z" fill="#D63346"/>
</g>
<defs>
<clipPath id="clip0_1542_42974">
<rect width="69.1774" height="65" fill="white" transform="translate(0.00976562)"/>
</clipPath>
</defs>
</svg>
